<svg width="103" height="104" viewBox="0 0 103 104" fill="none" xmlns="http://www.w3.org/2000/svg">
<g filter="url(#filter0_d)">
<path d="M51.5 2.58398C76.675 2.58398 97.2188 23.1277 97.2188 48.3027C97.2188 73.4777 76.675 94.0215 51.5 94.0215C26.325 94.0215 5.78125 73.4777 5.78125 48.3027C5.78125 23.1277 26.325 2.58398 51.5 2.58398ZM51.5 0.802734C25.2563 0.802734 4 22.059 4 48.3027C4 74.5465 25.2563 95.8027 51.5 95.8027C77.7438 95.8027 99 74.5465 99 48.3027C99 22.059 77.7438 0.802734 51.5 0.802734Z" fill="url(#paint0_linear)"/>
<path d="M79.7627 25.3842C80.0002 25.1467 80.0002 24.7905 79.7627 24.553L72.519 16.478C72.2815 16.2405 71.9252 16.2405 71.6877 16.478L52.2127 33.9342C51.9752 34.1717 51.9752 34.528 52.2127 34.7655L53.8752 36.6655L52.6877 37.7342C52.3315 37.7342 51.8565 37.6155 51.5002 37.6155C50.669 37.6155 49.8377 37.7342 49.1252 37.853L50.4315 36.6655C50.5502 36.5467 50.669 36.428 50.669 36.3092C50.669 36.1905 50.669 35.953 50.5502 35.8342L33.094 16.3592C32.8565 16.1217 32.5002 16.1217 32.2627 16.3592L26.444 21.5842L24.069 23.7217C23.9502 23.8405 23.8315 23.9592 23.8315 24.078C23.8315 24.1967 23.8315 24.4342 23.9502 24.553L41.4065 44.028C40.8127 45.2155 40.4565 46.6405 40.3377 48.0655L23.119 63.503C22.8815 63.7405 22.8815 64.0967 23.119 64.3342L30.3627 72.4092C30.4815 72.528 30.6002 72.6467 30.719 72.6467C30.8377 72.6467 30.9565 72.6467 31.0752 72.528L36.419 67.6592L33.2127 79.5342C33.094 79.7717 33.2127 80.128 33.3315 80.3655C33.4502 80.603 33.8065 80.7217 34.044 80.7217H68.3627C68.6002 80.7217 68.9565 80.603 69.0752 80.3655C69.194 80.128 69.3127 79.8905 69.194 79.5342L65.9877 68.0155L69.7877 72.2905C69.9065 72.4092 70.0252 72.528 70.2627 72.528C70.3815 72.528 70.5002 72.528 70.619 72.4092L76.4377 67.1842L78.8127 65.0467C78.9315 64.928 79.0502 64.8092 79.0502 64.6905C79.0502 64.5717 79.0502 64.3342 78.9315 64.2155L61.594 44.8592C61.2377 44.028 60.8815 43.1967 60.4065 42.4842L79.7627 25.3842ZM64.5627 49.6092L63.1377 50.9155L62.1877 49.8467L63.6127 48.5405L64.5627 49.6092ZM65.869 51.153L64.444 52.4592L63.494 51.3905L64.919 50.0842L65.869 51.153ZM67.294 52.578L65.869 53.8842L64.919 52.8155L66.344 51.5092L67.294 52.578ZM68.6002 54.003L67.1752 55.3092L66.2252 54.2405L67.6502 52.9342L68.6002 54.003ZM69.9065 55.5467L68.4815 56.853L67.5315 55.7842L68.9565 54.478L69.9065 55.5467ZM71.2127 56.9717L69.7877 58.278L68.8377 57.2092L70.2627 55.903L71.2127 56.9717ZM72.519 58.3967L71.094 59.703L70.144 58.6342L71.569 57.328L72.519 58.3967ZM73.8252 59.9405L72.4002 61.2467L71.4502 60.178L72.8752 58.8717L73.8252 59.9405ZM75.1315 61.3655L73.7065 62.6717L72.7565 61.603L74.1815 60.2967L75.1315 61.3655ZM76.4377 62.7905L75.0127 64.0967L74.0627 63.028L75.4877 61.7217L76.4377 62.7905ZM73.3502 68.6092L72.2815 67.4217L74.5377 65.403L75.6065 66.5905L73.3502 68.6092ZM71.9252 66.828L70.9752 65.7592L73.2315 63.7405L74.1815 64.8092L71.9252 66.828ZM68.244 68.253L70.5002 66.2342L71.4502 67.303L69.194 69.3217L68.244 68.253ZM66.9377 66.828L69.194 64.8092L70.144 65.878L67.8877 67.8967L66.9377 66.828ZM65.6315 65.403L67.8877 63.3842L68.8377 64.453L66.5815 66.4717L65.6315 65.403ZM37.0127 65.6405L35.7065 64.2155L36.7752 63.2655L37.6065 64.2155L37.2502 65.403L37.0127 65.6405ZM35.5877 66.9467L34.2815 65.5217L35.3502 64.5717L36.6565 65.9967L35.5877 66.9467ZM34.1627 68.253L32.8565 66.828L33.9252 65.878L35.2315 67.303L34.1627 68.253ZM32.619 69.5592L31.3127 68.1342L32.3815 67.1842L33.6877 68.6092L32.619 69.5592ZM26.919 66.5905L28.1065 65.5217L30.1252 67.778L28.9377 68.8467L26.919 66.5905ZM28.5815 65.0467L29.6502 64.0967L31.669 66.353L30.6002 67.303L28.5815 65.0467ZM27.1565 61.4842L29.1752 63.7405L28.1065 64.6905L26.0877 62.4342L27.1565 61.4842ZM28.7002 60.178L30.719 62.4342L29.6502 63.3842L27.6315 61.128L28.7002 60.178ZM30.1252 58.8717L32.144 61.128L31.0752 62.078L29.0565 59.8217L30.1252 58.8717ZM31.5502 57.5655L33.569 59.8217L32.5002 60.7717L30.4815 58.5155L31.5502 57.5655ZM33.094 56.2592L35.1127 58.5155L34.044 59.4655L32.0252 57.2092L33.094 56.2592ZM34.519 54.953L36.5377 57.2092L35.469 58.1592L33.4502 55.903L34.519 54.953ZM35.944 53.6467L37.9627 55.903L36.894 56.853L34.8752 54.5967L35.944 53.6467ZM37.369 52.3405L39.3877 54.5967L38.319 55.5467L36.3002 53.2905L37.369 52.3405ZM38.9127 51.0342L40.694 53.053L40.5752 53.528L39.8627 54.1217L37.844 51.8655L38.9127 51.0342ZM40.3377 49.728L41.2877 50.7967L40.8127 52.3405L39.269 50.5592L40.3377 49.728ZM40.8127 49.253C40.9315 49.3717 41.169 49.4905 41.4065 49.4905H41.7627L41.644 50.0842L40.8127 49.253ZM31.5502 62.4342L32.619 61.4842L34.6377 63.7405L33.569 64.6905L31.5502 62.4342ZM33.094 65.0467L32.0252 65.9967L30.0065 63.7405L31.0752 62.7905L33.094 65.0467ZM32.9752 61.128L34.044 60.178L36.0627 62.4342L34.994 63.3842L32.9752 61.128ZM34.4002 59.8217L35.469 58.8717L37.4877 61.128L36.419 62.078L34.4002 59.8217ZM40.1002 55.3092L39.6252 56.853L38.794 55.903L39.8627 54.953L40.1002 55.3092ZM39.5065 57.5655L39.0315 59.1092L37.369 57.2092L38.4377 56.2592L39.5065 57.5655ZM38.9127 59.8217L37.9627 60.7717L35.944 58.5155L37.0127 57.5655L38.9127 59.8217ZM38.2002 61.9592L37.844 63.6217L37.2502 62.9092L38.2002 61.9592ZM41.5252 56.853L41.7627 57.2092L41.2877 57.6842L41.5252 56.853ZM41.644 56.1405L42.119 54.5967L43.3065 55.903L42.2377 56.853L41.644 56.1405ZM42.3565 53.8842L42.8315 52.3405L44.8502 54.478L43.7815 55.428L42.3565 53.8842ZM43.1877 51.9842L44.2565 51.0342L46.2752 53.1717L45.2065 54.1217L43.1877 51.9842ZM43.069 51.2717L43.4252 50.0842L43.9002 50.5592L43.069 51.2717ZM43.544 49.4905H44.969L44.1377 50.203L43.544 49.4905ZM42.8315 47.7092H42.4752L42.9502 47.2342L43.4252 47.7092H42.8315ZM39.9815 63.028L39.8627 62.9092L40.3377 61.3655L41.0502 62.1967L39.9815 63.028ZM41.4065 61.7217L40.4565 60.653L40.694 59.703L41.0502 59.3467L42.3565 60.7717L41.4065 61.7217ZM42.8315 60.4155L41.5252 58.9905L42.594 58.0405L43.9002 59.4655L42.8315 60.4155ZM44.3752 59.1092L43.069 57.6842L44.1377 56.7342L45.444 58.1592L44.3752 59.1092ZM45.8002 57.803L44.494 56.378L45.5627 55.428L46.869 56.853L45.8002 57.803ZM47.2252 56.4967L45.919 55.0717L46.9877 54.1217L48.294 55.5467L47.2252 56.4967ZM48.769 55.1905L47.4627 53.7655L48.294 53.053L49.6002 54.478L48.769 55.1905ZM46.6315 52.8155L44.6127 50.678L45.444 49.9655L47.4627 52.103L46.6315 52.8155ZM46.6315 49.4905H50.3127L48.294 51.2717L46.6315 49.4905ZM49.0065 44.1467C49.0065 42.4842 50.3127 41.178 51.9752 41.178C52.9252 41.178 53.6377 41.5342 54.2315 42.2467C54.2315 42.4842 54.2315 42.603 54.3502 42.8405L54.8252 43.3155C54.944 43.553 54.944 43.9092 54.944 44.1467C54.944 45.8092 53.6377 47.1155 51.9752 47.1155C50.3127 47.1155 49.0065 45.8092 49.0065 44.1467ZM56.0127 44.7405L58.1502 47.1155L57.5565 47.7092H54.1127C55.0627 47.1155 55.7752 46.0467 56.0127 44.7405ZM69.194 63.978L68.244 62.9092L70.5002 60.8905L71.4502 61.9592L69.194 63.978ZM71.8065 62.4342L72.7565 63.503L70.5002 65.5217L69.5502 64.453L71.8065 62.4342ZM67.8877 62.553L66.9377 61.4842L69.194 59.4655L70.144 60.5342L67.8877 62.553ZM64.444 61.128L65.1565 60.4155L66.1065 61.4842L64.8002 62.6717L64.444 61.128ZM59.5752 49.728L59.9315 51.153L58.744 52.2217L57.794 51.153L59.5752 49.728ZM60.169 51.8655L60.5252 53.2905L60.0502 53.6467L59.1002 52.578L60.169 51.8655ZM60.644 54.003L60.8815 54.7155L60.4065 54.2405L60.644 54.003ZM63.969 58.9905L64.919 60.0592L64.3252 60.5342L63.969 58.9905ZM66.5815 61.8405L67.5315 62.9092L65.5127 64.6905L65.1565 63.2655L66.5815 61.8405ZM66.5815 61.0092L65.6315 59.9405L67.8877 57.9217L68.8377 58.9905L66.5815 61.0092ZM65.2752 59.5842L64.3252 58.5155L66.5815 56.4967L67.5315 57.5655L65.2752 59.5842ZM63.969 58.1592L63.494 57.6842L63.2565 56.9717L65.1565 55.1905L66.1065 56.2592L63.969 58.1592ZM63.1377 56.2592L62.7815 54.8342L63.969 53.7655L64.919 54.8342L63.1377 56.2592ZM62.544 54.1217L62.1877 52.6967L62.6627 52.2217L63.6127 53.2905L62.544 54.1217ZM62.069 51.9842L61.8315 51.2717L62.3065 51.7467L62.069 51.9842ZM61.8315 49.4905C61.9502 49.4905 61.9502 49.4905 62.069 49.4905H61.8315ZM58.9815 49.4905L57.4377 50.7967L56.7252 49.9655L57.319 49.4905H58.9815ZM56.2502 50.4405L56.9627 51.2717L54.7065 53.2905L53.994 52.4592L56.2502 50.4405ZM57.4377 51.628L58.3877 52.6967L56.1315 54.7155L55.1815 53.6467L57.4377 51.628ZM58.744 53.1717L59.694 54.2405L57.4377 56.1405L56.4877 55.0717L58.744 53.1717ZM60.0502 54.5967L61.0002 55.6655L58.744 57.6842L57.794 56.6155L60.0502 54.5967ZM61.2377 56.1405L61.594 57.5655L59.9315 59.1092L58.9815 58.0405L61.2377 56.1405ZM61.8315 58.1592L62.1877 59.5842L61.2377 60.4155L60.2877 59.3467L61.8315 58.1592ZM62.4252 60.2967L62.7815 61.7217L62.544 61.9592L61.594 60.8905L62.4252 60.2967ZM62.4252 49.0155C62.544 48.8967 62.544 48.778 62.544 48.5405C62.544 48.0655 62.544 47.5905 62.4252 47.2342L63.2565 48.1842L62.4252 49.0155ZM60.7627 47.7092H60.2877L59.9315 47.2342L60.644 46.5217C60.644 46.9967 60.644 47.353 60.7627 47.7092ZM58.9815 46.403L55.7752 42.8405C55.1815 41.2967 53.7565 40.228 51.9752 40.228C51.8565 40.228 51.8565 40.228 51.7377 40.228L52.569 39.5155C56.1315 39.8717 58.9815 42.2467 60.2877 45.453L58.9815 46.403ZM55.7752 32.2717L57.0815 33.6967L56.0127 34.6467L54.7065 33.2217L55.7752 32.2717ZM57.2002 30.9655L58.5065 32.3905L57.4377 33.3405L56.1315 31.9155L57.2002 30.9655ZM58.6252 29.6592L59.9315 31.0842L58.8627 32.0342L57.5565 30.6092L58.6252 29.6592ZM60.169 28.353L61.4752 29.778L60.4065 30.728L59.1002 29.303L60.169 28.353ZM61.594 26.928L62.9002 28.353L61.8315 29.303L60.5252 27.878L61.594 26.928ZM63.019 25.6217L64.3252 27.0467L63.2565 27.9967L61.9502 26.5717L63.019 25.6217ZM64.444 24.3155L65.7502 25.7405L64.6815 26.6905L63.3752 25.2655L64.444 24.3155ZM65.9877 23.0092L67.294 24.4342L66.2252 25.3842L64.919 23.9592L65.9877 23.0092ZM67.4127 21.703L68.719 23.128L67.6502 24.078L66.344 22.653L67.4127 21.703ZM68.8377 20.3967L70.144 21.8217L69.0752 22.7717L67.769 21.3467L68.8377 20.3967ZM70.3815 19.0905L71.6877 20.5155L70.619 21.4655L69.3127 20.0405L70.3815 19.0905ZM76.0815 22.178L74.894 23.2467L72.8752 20.9905L74.0627 19.9217L76.0815 22.178ZM74.419 23.7217L73.3502 24.6717L71.3315 22.4155L72.4002 21.4655L74.419 23.7217ZM75.844 27.2842L73.8252 25.028L74.894 24.078L76.9127 26.3342L75.844 27.2842ZM74.3002 28.5905L72.2815 26.3342L73.3502 25.3842L75.369 27.6405L74.3002 28.5905ZM72.8752 29.8967L70.8565 27.6405L71.9252 26.6905L73.944 28.9467L72.8752 29.8967ZM71.4502 31.203L69.4315 28.9467L70.5002 27.9967L72.519 30.253L71.4502 31.203ZM69.9065 32.5092L67.8877 30.253L68.9565 29.303L70.9752 31.5592L69.9065 32.5092ZM68.4815 33.8155L66.4627 31.5592L67.5315 30.6092L69.5502 32.8655L68.4815 33.8155ZM67.0565 35.1217L65.0377 32.8655L66.1065 31.9155L68.1252 34.1717L67.0565 35.1217ZM65.6315 36.428L63.6127 34.1717L64.6815 33.2217L66.7002 35.478L65.6315 36.428ZM64.0877 37.7342L62.069 35.478L63.1377 34.528L65.1565 36.7842L64.0877 37.7342ZM62.6627 39.0405L60.644 36.7842L61.7127 35.8342L63.7315 38.0905L62.6627 39.0405ZM61.2377 40.3467L59.219 38.0905L60.2877 37.1405L62.3065 39.3967L61.2377 40.3467ZM71.4502 26.3342L70.3815 27.2842L68.3627 25.028L69.4315 24.078L71.4502 26.3342ZM69.9065 23.7217L70.9752 22.7717L72.994 25.028L71.9252 25.978L69.9065 23.7217ZM70.0252 27.6405L68.9565 28.5905L66.9377 26.3342L68.0065 25.3842L70.0252 27.6405ZM68.6002 28.9467L67.5315 29.8967L65.5127 27.6405L66.5815 26.6905L68.6002 28.9467ZM67.0565 30.253L65.9877 31.203L63.969 28.9467L65.0377 27.9967L67.0565 30.253ZM65.6315 31.5592L64.5627 32.5092L62.544 30.253L63.6127 29.303L65.6315 31.5592ZM64.2065 32.8655L63.1377 33.8155L61.119 31.5592L62.1877 30.6092L64.2065 32.8655ZM62.7815 34.1717L61.7127 35.1217L59.694 32.8655L60.7627 31.9155L62.7815 34.1717ZM61.2377 35.478L60.169 36.428L58.1502 34.1717L59.219 33.2217L61.2377 35.478ZM57.794 34.528L59.8127 36.7842L58.744 37.7342L56.7252 35.478L57.794 34.528ZM58.3877 38.0905L57.5565 38.803L55.5377 36.6655L56.369 35.953L58.3877 38.0905ZM59.219 40.703L57.9127 39.278L58.744 38.5655L60.7627 40.8217L59.9315 41.5342C59.694 41.178 59.4565 40.9405 59.219 40.703ZM77.269 25.978L75.2502 23.7217L76.4377 22.653L78.4565 24.9092L77.269 25.978ZM72.044 17.6655L73.3502 19.0905L72.1627 20.1592L70.8565 18.7342L72.044 17.6655ZM53.4002 34.2905L54.2315 33.578L55.5377 35.003L54.7065 35.7155L53.4002 34.2905ZM54.7065 37.378L55.5377 38.2092C55.0627 38.0905 54.7065 37.853 54.2315 37.853L54.7065 37.378ZM49.6002 40.3467C49.4815 40.4655 49.3627 40.703 49.4815 40.9405C48.5315 41.653 47.819 42.8405 47.819 44.1467C47.819 44.2655 47.819 44.2655 47.819 44.3842L45.3252 41.653C46.7502 40.3467 48.6502 39.5155 50.669 39.3967L49.6002 40.3467ZM39.8627 40.3467L41.2877 39.0405L42.2377 40.1092L40.8127 41.4155L39.8627 40.3467ZM38.5565 38.9217L39.9815 37.6155L40.9315 38.6842L39.5065 39.9905L38.5565 38.9217ZM37.2502 37.378L38.6752 36.0717L39.6252 37.1405L38.2002 38.4467L37.2502 37.378ZM35.944 35.953L37.369 34.6467L38.319 35.7155L36.894 37.0217L35.944 35.953ZM34.6377 34.528L36.0627 33.2217L37.0127 34.2905L35.5877 35.5967L34.6377 34.528ZM33.3315 32.9842L34.7565 31.678L35.7065 32.7467L34.2815 34.053L33.3315 32.9842ZM32.0252 31.5592L33.4502 30.253L34.4002 31.3217L32.9752 32.628L32.0252 31.5592ZM30.719 30.1342L32.144 28.828L33.094 29.8967L31.669 31.203L30.719 30.1342ZM29.4127 28.5905L30.8377 27.2842L31.7877 28.353L30.3627 29.6592L29.4127 28.5905ZM28.1065 27.1655L29.5315 25.8592L30.4815 26.928L29.0565 28.2342L28.1065 27.1655ZM26.8002 25.7405L28.2252 24.4342L29.1752 25.503L27.7502 26.8092L26.8002 25.7405ZM29.8877 19.9217L30.9565 21.1092L28.7002 23.128L27.6315 21.9405L29.8877 19.9217ZM31.3127 21.703L32.2627 22.7717L30.0065 24.7905L29.0565 23.7217L31.3127 21.703ZM34.994 20.278L32.7377 22.2967L31.7877 21.228L34.044 19.2092L34.994 20.278ZM36.3002 21.703L34.044 23.7217L33.094 22.653L35.3502 20.6342L36.3002 21.703ZM37.6065 23.128L35.3502 25.1467L34.4002 24.078L36.6565 22.0592L37.6065 23.128ZM38.9127 24.6717L36.6565 26.6905L35.7065 25.6217L37.9627 23.603L38.9127 24.6717ZM40.219 26.0967L37.9627 28.1155L37.0127 27.0467L39.269 25.028L40.219 26.0967ZM41.5252 27.5217L39.269 29.5405L38.319 28.4717L40.5752 26.453L41.5252 27.5217ZM42.8315 29.0655L40.5752 31.0842L39.6252 30.0155L41.8815 27.9967L42.8315 29.0655ZM44.1377 30.4905L41.8815 32.5092L40.9315 31.4405L43.1877 29.4217L44.1377 30.4905ZM45.444 31.9155L43.1877 33.9342L42.2377 32.8655L44.494 30.8467L45.444 31.9155ZM46.7502 33.3405L44.494 35.3592L43.544 34.2905L45.8002 32.2717L46.7502 33.3405ZM48.0565 34.8842L45.8002 36.903L44.8502 35.8342L47.1065 33.8155L48.0565 34.8842ZM33.9252 24.553L34.8752 25.6217L32.619 27.6405L31.669 26.5717L33.9252 24.553ZM31.3127 26.0967L30.3627 25.028L32.619 23.0092L33.569 24.078L31.3127 26.0967ZM35.2315 25.978L36.1815 27.0467L33.9252 29.0655L32.9752 27.9967L35.2315 25.978ZM36.5377 27.5217L37.4877 28.5905L35.2315 30.6092L34.2815 29.5405L36.5377 27.5217ZM37.844 28.9467L38.794 30.0155L36.5377 32.0342L35.5877 30.9655L37.844 28.9467ZM39.269 30.3717L40.219 31.4405L37.9627 33.4592L37.0127 32.3905L39.269 30.3717ZM40.5752 31.9155L41.5252 32.9842L39.269 35.003L38.319 33.9342L40.5752 31.9155ZM41.8815 33.3405L42.8315 34.4092L40.5752 36.428L39.6252 35.3592L41.8815 33.3405ZM43.1877 34.7655L44.1377 35.8342L41.8815 37.853L40.9315 36.7842L43.1877 34.7655ZM42.2377 38.2092L44.494 36.1905L45.444 37.2592L43.1877 39.278L42.2377 38.2092ZM45.8002 37.7342L46.5127 38.5655L45.8002 39.1592C45.2065 39.5155 44.6127 39.8717 44.1377 40.3467L43.544 39.6342L45.8002 37.7342ZM46.9877 38.0905L46.2752 37.2592L48.5315 35.2405L49.244 36.0717L46.9877 38.0905ZM32.5002 17.5467L33.569 18.7342L31.3127 20.753L30.244 19.5655L32.5002 17.5467ZM26.8002 22.7717L27.869 23.9592L26.444 25.2655L25.3752 24.078L26.8002 22.7717ZM42.0002 42.603L41.2877 41.7717L42.7127 40.4655L43.3065 41.178C43.069 41.4155 42.8315 41.653 42.7127 41.8905L42.0002 42.603ZM44.494 42.4842L48.0565 46.403C48.1752 46.5217 48.294 46.6405 48.5315 46.6405H48.6502C49.0065 47.1155 49.3627 47.4717 49.8377 47.7092H45.0877L43.544 46.0467C43.3065 45.8092 42.9502 45.8092 42.7127 46.0467L42.594 46.1655C42.9502 44.7405 43.6627 43.553 44.494 42.4842ZM25.7315 62.7905L27.7502 65.0467L26.5627 66.1155L24.544 63.8592L25.7315 62.7905ZM30.9565 71.103L29.6502 69.678L30.8377 68.6092L32.144 70.0342L30.9565 71.103ZM67.5315 78.8217H35.469L39.1502 65.403L50.7877 54.953C51.0252 54.7155 51.0252 54.3592 50.7877 54.1217L49.1252 52.2217L52.094 49.4905H55.419L52.6877 51.9842C52.4502 52.2217 52.4502 52.578 52.6877 52.8155L63.6127 65.0467L67.5315 78.8217ZM70.7377 70.9842L69.669 69.7967L71.9252 67.778L72.994 68.9655L70.7377 70.9842ZM76.4377 65.7592L75.369 64.5717L76.794 63.2655L77.8627 64.453L76.4377 65.7592Z" fill="url(#paint1_linear)"/>
</g>
<defs>
<filter id="filter0_d" x="0" y="0.802734" width="103" height="103" filterUnits="userSpaceOnUse" color-interpolation-filters="sRGB">
<feFlood flood-opacity="0" result="BackgroundImageFix"/>
<feColorMatrix in="SourceAlpha" type="matrix" values="0 0 0 0 0 0 0 0 0 0 0 0 0 0 0 0 0 0 127 0"/>
<feOffset dy="4"/>
<feGaussianBlur stdDeviation="2"/>
<feColorMatrix type="matrix" values="0 0 0 0 0 0 0 0 0 0 0 0 0 0 0 0 0 0 0.25 0"/>
<feBlend mode="normal" in2="BackgroundImageFix" result="effect1_dropShadow"/>
<feBlend mode="normal" in="SourceGraphic" in2="effect1_dropShadow" result="shape"/>
</filter>
<linearGradient id="paint0_linear" x1="6.83611" y1="10.4005" x2="81.4615" y2="73.8105" gradientUnits="userSpaceOnUse">
<stop stop-color="#C26226"/>
<stop offset="1" stop-color="#CB987B"/>
</linearGradient>
<linearGradient id="paint1_linear" x1="7.51428" y1="9.60293" x2="82.1395" y2="73.0129" gradientUnits="userSpaceOnUse">
<stop stop-color="#C26226"/>
<stop offset="1" stop-color="#CB987B"/>
</linearGradient>
</defs>
</svg>
