<svg width="103" height="104" viewBox="0 0 103 104" fill="none" xmlns="http://www.w3.org/2000/svg">
<g filter="url(#filter0_d)">
<path d="M30.4812 20.3965C30.3625 19.209 30.4812 18.734 31.075 18.4965C31.55 18.6152 32.7375 18.9715 33.5688 19.684C33.6875 19.8027 33.6875 19.8027 33.8062 19.8027C33.8062 19.8027 34.7563 20.5152 34.4 24.3152C31.7875 24.434 30.125 25.859 30.0063 25.9777C29.8875 26.0965 29.8875 26.2152 30.0063 26.4527C30.0063 26.5715 30.125 26.5715 30.2437 26.5715C30.3625 26.5715 30.3625 26.5715 30.4812 26.4527C30.4812 26.4527 32.025 25.1465 34.4 25.0277C34.2812 25.384 34.2812 25.859 34.5188 26.2152C34.5188 26.334 34.6375 26.5715 34.7563 26.6902C34.9937 27.284 35.5875 28.709 35.7063 29.4215C34.1625 29.7777 32.8563 30.9652 32.7375 30.9652C32.6188 31.084 32.6188 31.3215 32.7375 31.4402C32.7375 31.559 32.8562 31.559 32.975 31.559C33.0938 31.559 33.0938 31.559 33.2125 31.4402C33.2125 31.4402 34.5187 30.3715 35.825 30.0152C35.9437 30.2527 36.0625 30.3715 36.3 30.4902C36.4188 30.4902 37.9625 31.2027 38.3187 33.1027C38.3187 33.2215 38.3187 33.2215 38.4375 33.2215C38.4375 33.2215 38.4375 33.2215 38.3187 33.2215C36.775 34.1715 35.4688 35.834 34.6375 36.9027C33.45 33.934 32.3813 33.3402 31.3125 32.984C31.1938 32.984 31.075 32.8652 31.075 32.8652C30.9562 32.509 29.4125 29.4215 29.5312 26.6902C29.65 25.384 29.8875 24.3152 30.2437 23.3652C30.4813 22.6527 30.7188 21.9402 30.7188 21.2277C30.6 21.109 30.6 20.7527 30.4812 20.3965ZM37.3688 29.0652C37.3688 28.709 37.25 28.3527 37.1312 27.9965C37.725 27.8777 38.675 27.8777 39.5062 27.8777C39.625 28.1152 39.7437 28.234 39.9813 28.3527C39.9813 28.3527 41.4062 29.184 41.8812 32.7465C41.2875 32.7465 40.575 32.8652 39.9813 32.984V32.8652C39.625 30.7277 38.0812 29.5402 37.3688 29.0652ZM39.625 21.7027C39.5062 21.8215 39.5062 21.9402 39.3875 22.059C38.4375 21.9402 37.4875 21.9402 37.25 21.8215C37.1312 21.7027 37.0125 21.7027 36.775 21.8215C36.6562 21.9402 36.6562 22.059 36.775 22.2965C37.0125 22.534 38.2 22.7715 39.2687 22.7715C39.5063 24.5527 39.625 26.809 39.2687 27.284V27.4027C38.5563 27.4027 37.4875 27.4027 36.775 27.6402C36.6562 27.1652 36.4188 26.6902 36.1813 26.2152C36.0625 25.9777 36.0625 25.859 35.9438 25.7402C35.825 25.5027 35.9438 25.2652 35.9438 25.2652C35.9438 25.1465 36.0625 25.0277 36.0625 24.909C36.3 22.1777 35.9438 20.5152 35.4688 19.684C36.5375 18.0215 38.9125 14.8152 39.9813 14.1027C40.1 14.1027 40.1 13.984 40.2188 14.1027C41.05 14.5777 41.8812 16.4777 41.8812 17.4277C42 18.3777 40.6937 20.7527 39.625 21.7027ZM51.6187 25.2652C51.7375 25.384 51.8563 25.5027 51.975 25.384C52.925 24.7902 54.4688 25.1465 55.3 25.384V25.5027C55.5375 27.0465 55.6562 29.0652 55.6562 29.7777C54.7062 29.5402 53.1625 29.3027 52.3312 29.5402C52.2125 29.5402 52.0938 29.7777 52.0938 29.8965C52.0938 30.0152 52.3312 30.134 52.45 30.134C53.1625 29.8965 54.5875 30.134 55.5375 30.3715C55.5375 30.4902 55.5375 30.4902 55.5375 30.609C55.775 31.3215 56.3687 33.2215 56.3687 34.0527C54.5875 33.5777 51.8563 33.3402 51.2625 33.5777C51.1437 33.5777 50.9062 33.6965 50.6688 33.6965C50.6688 33.2215 50.4312 27.0465 50.075 24.434C51.2625 20.9902 53.1625 17.5465 54.35 17.5465C54.825 17.5465 55.1813 17.6652 55.5375 18.0215C56.3688 18.8527 56.6063 20.634 56.4875 21.4652C56.3688 22.8902 55.8937 24.6715 55.6562 24.909C55.6562 24.909 55.6562 25.0277 55.5375 25.0277C54.5875 24.6715 52.925 24.434 51.7375 25.0277C51.5 24.909 51.5 25.0277 51.6187 25.2652ZM64.2062 25.0277C64.4438 24.7902 64.6813 24.7902 64.8 24.909C66.1063 25.384 69.4313 30.7277 70.3812 32.8652C68.125 32.7465 65.3937 33.3402 63.9688 33.5777C63.7313 32.8652 63.375 31.559 63.0187 29.3027C62.7812 27.759 63.375 25.6215 64.2062 25.0277ZM51.5 0.802734C25.2563 0.802734 4 22.059 4 48.3027C4 74.5465 25.2563 95.8027 51.5 95.8027C77.7438 95.8027 99 74.5465 99 48.3027C99 22.059 77.7438 0.802734 51.5 0.802734ZM51.5 94.0215C41.7625 94.0215 32.8563 90.934 25.375 85.8277C29.2938 83.6902 33.5688 81.7902 34.5188 82.0277C34.875 82.1465 35.5875 82.384 36.3 82.6215C37.1313 82.9777 37.9625 83.2152 39.0312 83.5715C39.625 83.809 40.2188 83.9277 40.6937 84.0465C42.5938 84.5215 44.375 84.759 45.9188 84.4027C49.7188 83.334 58.0312 81.434 60.8813 81.909C61.8313 82.0277 63.1375 82.1465 64.5625 82.1465C65.1562 82.1465 65.75 82.1465 66.3438 82.1465C66.4625 82.1465 66.4625 82.1465 66.5812 82.1465C68.8375 82.1465 72.1625 82.1465 72.6375 82.5027C73.5875 83.2152 77.2688 83.9277 80.5938 83.4527C72.6375 90.1027 62.5438 94.0215 51.5 94.0215ZM45.0875 49.3715C44.2562 48.184 42.95 47.1152 41.525 45.9277C39.0312 43.7902 36.0625 41.4152 34.875 38.0902C34.875 37.9715 34.7563 37.8527 34.7563 37.734C35.4688 36.6652 36.775 34.884 38.4375 33.934C38.5563 33.934 38.675 33.934 38.7938 33.934C38.9125 33.934 39.0312 34.0527 39.2687 34.0527C39.5063 34.0527 39.625 33.934 39.7438 33.8152C40.575 33.6965 41.4062 33.5777 42.2375 33.5777C42.3563 34.0527 42.5938 35.0027 43.9 35.4777C44.4937 35.7152 45.9188 36.5465 47.3438 37.3777C50.55 39.159 52.6875 40.3465 53.2812 40.3465C53.875 40.3465 55.0625 41.1777 55.8937 41.8902C56.8438 42.484 57.3187 42.8402 57.5562 42.959C58.0312 42.959 59.8125 44.1465 60.1688 44.6215C60.2875 44.7402 60.525 45.0965 60.7625 45.4527C61.5938 46.6402 62.1875 47.4715 62.5438 47.709C62.6625 47.8277 62.9 48.0652 63.2563 48.184C64.0875 48.8965 64.5625 49.2527 64.9188 49.2527H65.0375C65.1562 49.2527 65.275 49.0152 65.275 48.8965C65.275 48.7777 65.0375 48.659 64.9188 48.659C64.6812 48.659 63.9688 48.0652 63.6125 47.709C63.2563 47.4715 63.0187 47.234 62.9 47.1152C62.6625 46.9965 61.7125 45.6902 61.2375 44.9777C60.8813 44.5027 60.6437 44.1465 60.525 44.0277C60.1687 43.6715 58.15 42.2465 57.4375 42.2465C57.2 42.2465 56.6063 41.7715 56.0125 41.2965C54.9437 40.4652 53.7562 39.634 53.0438 39.634C52.45 39.634 49.4813 37.9715 47.3438 36.6652C45.8 35.834 44.4938 35.0027 43.7812 34.7652C42.95 34.409 42.5938 33.934 42.475 33.5777C42.5938 33.5777 42.7125 33.459 42.8312 33.459C43.0688 33.459 43.3062 33.5777 43.3062 33.5777H43.425C43.425 33.5777 46.6312 33.459 47.9375 34.0527H48.0562C48.0562 34.0527 48.4125 34.0527 48.8875 34.0527C48.8875 34.0527 48.8875 34.0527 49.0063 34.1715C49.2438 34.409 49.6 34.5277 49.9562 34.2902C50.075 34.1715 50.1937 34.1715 50.3125 34.0527C50.6688 34.0527 51.025 33.934 51.2625 33.934C51.8563 33.6965 55.1812 34.0527 56.6063 34.6465C58.3875 36.0715 60.4062 37.9715 60.6437 38.5652C60.7625 38.8027 60.8812 38.9215 61 39.0402C61.3563 39.2777 62.3063 39.5152 63.375 38.9215C63.4938 38.8027 63.6125 38.8027 63.6125 38.684C64.2062 37.734 64.2062 35.359 64.2062 34.6465C64.2062 34.5277 64.2062 34.2902 64.0875 34.1715C64.0875 34.1715 64.0875 34.1715 64.0875 34.0527C65.5125 33.6965 68.2438 33.2215 70.3812 33.3402C70.5 33.6965 70.3812 34.1715 70.2625 34.7652C70.1437 35.7152 69.9062 37.0215 70.3812 38.684C70.7375 39.9902 71.0938 40.3465 71.5687 40.584C71.5687 40.584 71.6875 40.9402 71.8063 42.009C72.0437 44.0277 68.0062 50.3215 65.3937 53.7652C65.275 53.884 65.275 53.884 65.275 54.0027C62.6625 62.434 63.2562 73.5965 64.0875 80.8402C62.7812 80.8402 61.5938 80.8402 60.7625 80.7215C57.3187 80.2465 48.175 82.384 45.325 83.2152C44.1375 83.5715 42.475 83.334 40.8125 82.859C43.0687 76.9215 46.275 67.8965 46.5125 64.9277C46.9875 63.1465 47.7 53.1715 45.0875 49.3715ZM43.3062 14.934C43.7812 14.3402 44.375 13.8652 44.4937 13.7465C44.85 13.7465 46.1562 14.6965 46.275 15.2902C46.5125 16.1215 46.5125 19.8027 45.4438 20.9902C45.325 21.109 45.325 21.2277 45.2062 21.3465C44.2563 21.3465 42.8312 21.4652 42.3563 21.7027C42.2375 21.8215 42.1188 21.9402 42.2375 22.059C42.2375 22.1777 42.3563 22.1777 42.475 22.1777H42.5938C42.8312 22.059 43.7812 21.9402 44.7313 21.9402C44.1375 23.484 44.7313 25.7402 45.2062 27.1652C44.1375 27.1652 42.5938 27.284 42.1187 27.759C42 27.8777 42 28.1152 42.1187 28.234C42.1187 28.234 42.2375 28.3527 42.3563 28.3527C42.475 28.3527 42.475 28.3527 42.5938 28.234C42.8312 27.9965 44.1375 27.8777 45.4438 27.8777C46.0375 29.0652 47.5812 32.2715 48.5312 33.6965C48.4125 33.6965 48.2938 33.6965 48.175 33.6965C46.8688 33.1027 44.0187 33.1027 43.5438 33.1027C43.425 33.1027 43.3063 32.984 43.1875 32.984C43.1875 32.8652 43.1875 32.7465 43.1875 32.6277C42.8312 29.4215 41.6437 27.9965 40.9313 27.284C41.1688 25.9777 41.05 23.8402 40.9313 22.7715C42.1188 21.4652 43.5438 19.0902 43.5438 17.4277C43.9 16.5965 43.6625 15.7652 43.3062 14.934ZM82.4938 81.909C79.1687 83.2152 74.1813 82.2652 73.35 81.6715C72.6375 81.0777 70.2625 81.0777 66.5812 81.0777C66.4625 81.0777 66.3438 81.0777 66.225 81.0777C65.3938 73.9527 64.8 63.0277 67.2938 54.9527C68.7188 53.0527 74.4188 45.2152 73.9437 42.009C73.7063 40.2277 73.4688 39.7527 72.9938 39.2777C72.875 39.159 72.7562 39.0402 72.5188 38.209C72.1625 37.0215 72.2812 36.0715 72.4 35.1215C72.5187 34.409 72.6375 33.6965 72.4 32.984C72.0437 31.559 68.0062 24.0777 65.5125 23.1277C64.6812 22.7715 63.85 23.009 63.1375 23.6027C61.5938 24.7902 61 27.6402 61.3563 29.5402C61.7125 32.034 62.1875 33.8152 62.7812 34.884C62.7812 35.9527 62.6625 37.0215 62.5438 37.4965C62.425 37.4965 62.425 37.4965 62.425 37.4965C61.7125 36.309 59.4562 34.409 58.2687 33.459C58.15 32.3902 57.5563 30.8465 57.4375 30.2527C57.5563 29.184 57.3187 26.9277 57.2 25.6215C58.0312 24.3152 58.2687 21.4652 58.2687 21.4652C58.3875 20.2777 58.15 18.0215 56.8438 16.5965C56.1312 15.884 55.3 15.5277 54.35 15.5277C51.3813 15.5277 49.0063 21.9402 48.4125 23.8402C48.4125 23.959 48.4125 24.0777 48.4125 24.3152C48.65 25.6215 48.7687 27.8777 48.8875 29.8965C48.0562 28.3527 47.3438 26.9277 47.225 26.6902C46.3938 24.6715 46.275 22.8902 46.8687 22.2965C48.5312 20.5152 48.5312 16.0027 48.175 14.8152C47.7 13.509 45.6813 11.8465 44.375 12.084C43.7812 12.2027 43.0688 12.7965 42.475 13.3902C42.1188 12.9152 41.7625 12.559 41.4062 12.4402C40.6937 12.084 39.8625 12.084 39.2687 12.559C37.9625 13.509 35.7063 16.7152 34.5188 18.259C33.0938 17.309 31.4312 16.9527 31.3125 16.9527C31.1938 16.9527 31.075 16.9527 30.9563 16.9527C28.5813 17.5465 28.7 19.5652 28.8188 20.7527C28.8188 20.9902 28.8188 21.3465 28.8188 21.584C28.8188 22.059 28.5813 22.534 28.4625 23.2465C28.1063 24.1965 27.75 25.384 27.6313 26.9277C27.5125 30.0152 29.0562 33.3402 29.4125 33.934C29.7687 34.6465 30.3625 34.7652 30.7188 34.884C31.1938 35.0027 32.025 35.359 33.3313 38.8027C34.6375 42.6027 37.8438 45.2152 40.4562 47.4715C41.7625 48.659 43.0687 49.7277 43.7812 50.6777C45.4437 53.0527 45.6813 59.7027 45.2062 65.1652C44.9688 68.0152 41.7625 76.9215 39.625 82.7402C38.675 82.384 37.725 82.0277 37.0125 81.7902C36.1812 81.434 35.4688 81.1965 34.9937 81.0777C33.2125 80.6027 26.6812 84.0465 24.5437 85.234C13.025 76.684 5.78125 63.384 5.78125 48.3027C5.78125 23.1277 26.325 2.58398 51.5 2.58398C76.675 2.58398 97.2188 23.1277 97.2188 48.3027C97.2188 61.6027 91.5187 73.4777 82.4938 81.909Z" fill="url(#paint0_linear)"/>
</g>
<defs>
<filter id="filter0_d" x="0" y="0.802734" width="103" height="103" filterUnits="userSpaceOnUse" color-interpolation-filters="sRGB">
<feFlood flood-opacity="0" result="BackgroundImageFix"/>
<feColorMatrix in="SourceAlpha" type="matrix" values="0 0 0 0 0 0 0 0 0 0 0 0 0 0 0 0 0 0 127 0"/>
<feOffset dy="4"/>
<feGaussianBlur stdDeviation="2"/>
<feColorMatrix type="matrix" values="0 0 0 0 0 0 0 0 0 0 0 0 0 0 0 0 0 0 0.25 0"/>
<feBlend mode="normal" in2="BackgroundImageFix" result="effect1_dropShadow"/>
<feBlend mode="normal" in="SourceGraphic" in2="effect1_dropShadow" result="shape"/>
</filter>
<linearGradient id="paint0_linear" x1="98.9328" y1="93.0906" x2="11.9058" y2="10.9164" gradientUnits="userSpaceOnUse">
<stop stop-color="#78FFD6"/>
<stop offset="1" stop-color="#007991"/>
</linearGradient>
</defs>
</svg>
