<svg width="103" height="103" viewBox="0 0 103 103" fill="none" xmlns="http://www.w3.org/2000/svg">
<g filter="url(#filter0_d)">
<path d="M51.5 0C25.2563 0 4 21.2563 4 47.5C4 73.7438 25.2563 95 51.5 95C77.7438 95 99 73.7438 99 47.5C99 21.2563 77.7438 0 51.5 0ZM90.0938 71.8438C86.65 64.2438 75.4875 61.0375 75.0125 60.9188C75.0125 60.9188 73.2312 60.4437 72.4 60.0875C66.9375 58.0687 48.4125 51.1812 40.6937 47.8563C38.5562 46.9062 36.775 45.3625 35.7063 43.3438C38.2 42.8688 40.575 42.5125 42.8312 42.1562C43.0688 43.3438 43.6625 45.2438 45.6812 46.3125C48.4125 47.7375 71.5687 54.9813 80.2375 56.8813C80.8312 57 81.3063 57.1187 81.9 57.1187C83.6813 57.3562 91.9937 58.9 94.4875 62.9375C93.4187 66.1438 91.875 69.1125 90.0938 71.8438ZM79.05 83.9562C77.8625 80.275 73.4688 75.525 69.55 71.8438C67.2938 69.7063 64.6813 67.8063 61.8312 66.2625L31.4312 49.875C29.8875 49.0438 28.8188 47.8563 28.225 46.55C27.8687 45.7188 27.8687 45.2438 28.3438 44.5312C30.4813 44.175 32.6187 43.8187 34.6375 43.4625C35.7062 45.8375 37.8438 47.8563 40.3375 48.925C48.175 52.25 66.7 59.1375 72.1625 61.1562C72.9938 61.5125 74.775 61.9875 74.8938 61.9875C75.0125 61.9875 86.65 65.4313 89.5 73.0312C86.5312 77.3063 83.0875 80.8687 79.05 83.9562ZM51.5 1.78125C62.9 1.78125 73.35 6.05625 81.425 12.9437C78.3375 15.0812 70.6188 19.475 65.6313 22.2063C62.3063 24.1063 59.4562 25.65 58.0312 26.6C53.875 29.3312 31.9062 41.325 30.125 42.3937C29.0562 42.5125 27.9875 42.75 26.9187 42.8687C18.8437 44.175 11.8375 45.6 5.9 47.025C6.01875 22.0875 26.4438 1.78125 51.5 1.78125ZM82.85 14.25C84.0375 15.3188 85.1062 16.5063 86.175 17.6938C83.4437 17.575 80 17.575 77.7438 17.575C80 16.15 81.6625 15.0813 82.85 14.25ZM50.075 33.3688C50.4312 33.1313 50.9062 32.8937 51.2625 32.6562C52.2125 33.6063 53.9938 35.7438 54.4688 38.2375C53.2812 38.475 51.975 38.7125 50.6688 38.95C50.9062 36.575 50.4312 34.4375 50.075 33.3688ZM50.075 39.0688C49.2437 39.1875 48.4125 39.425 47.4625 39.5438C47.7 37.7625 47.8188 35.7438 47.8188 34.675C48.4125 34.3188 49.0062 34.0812 49.4813 33.725C49.8375 34.7938 50.3125 36.8125 50.075 39.0688ZM51.8563 32.3C52.3312 32.0625 52.6875 31.825 53.1625 31.5875C54.4688 32.4188 57.4375 34.4375 58.8625 37.2875C57.675 37.525 56.3688 37.7625 55.0625 38C54.5875 35.625 52.8062 33.4875 51.8563 32.3ZM53.7563 31.2312C53.9938 31.1125 54.2313 30.9937 54.4688 30.875L59.9312 33.25C60.525 33.4875 61 33.8438 61.475 34.3187C62.1875 35.15 62.7812 35.8625 63.1375 36.4562C62.0687 36.6938 60.8812 36.9312 59.575 37.1688C58.15 34.3187 55.1813 32.1812 53.7563 31.2312ZM61.8312 33.9625C61.3563 33.4875 60.7625 33.0125 60.1688 32.775L55.0625 30.5188C55.1813 30.5188 55.1813 30.4 55.3 30.4L61.5938 31.4688C62.0687 31.5875 62.3063 31.5875 62.6625 31.7063C64.5625 32.4188 66.1063 33.6063 67.2938 35.2687L67.4125 35.3875C66.225 35.7437 64.9188 35.9813 63.6125 36.3375C63.2563 35.7438 62.7812 34.9125 61.8312 33.9625ZM62.9 31.2312C62.5437 31.1125 62.1875 30.9937 61.7125 30.875L56.1313 29.925C56.6063 29.6875 57.0812 29.3312 57.4375 29.0938C59.4562 29.3312 65.5125 30.2812 69.6687 31.2312C72.7562 31.9437 75.8438 32.1813 78.2188 32.1813C74.8938 33.3688 71.8063 34.3188 68.125 35.2687L67.8875 34.9125C66.5812 33.25 64.8 31.9437 62.9 31.2312ZM69.7875 30.6375C66.1063 29.6875 60.7625 28.975 58.2687 28.6187C58.5063 28.5 58.7437 28.2625 58.9813 28.1438C59.2188 28.025 59.575 27.7875 59.8125 27.6687C64.0875 27.9062 78.9313 28.5 86.4125 29.2125C85.4625 29.5688 84.3938 29.925 83.4437 30.2812C82.2562 30.7563 81.1875 31.1125 80.1188 31.5875C77.625 31.7063 73.7063 31.7062 69.7875 30.6375ZM45.6812 35.8625C46.1562 35.625 46.6313 35.2687 47.225 35.0312C47.225 36.2188 47.1062 38 46.8687 39.6625C46.1562 39.7812 45.4437 39.9 44.7313 40.0187C45.0875 38.7125 45.4437 36.9313 45.6812 35.8625ZM44.0187 40.0187C41.4062 40.4938 38.5563 40.9688 35.4688 41.4438C38.0812 40.0188 41.525 38.1187 44.9688 36.1C44.6125 37.6437 44.2563 39.0688 44.0187 40.0187ZM6.85 57.3563C7.5625 58.1875 8.275 59.0188 9.225 59.85L9.9375 60.4438C16.5875 66.2625 25.6125 74.2188 25.1375 84.9062C15.9937 78.375 9.34375 68.6375 6.85 57.3563ZM26.4438 85.7375C27.3937 74.1 17.8938 65.6688 10.7687 59.6125L10.0563 59.0187C8.15625 57.3563 6.96875 55.8125 6.25625 54.3875C6.01875 52.6063 5.9 50.9438 5.78125 49.1625C7.44375 48.6875 9.225 48.3313 11.0062 47.975C10.5312 49.4 10.175 51.4188 11.3625 53.0812C11.6 53.4375 12.55 54.7438 26.8 64.3625C34.6375 69.7063 39.3875 78.2562 39.5062 87.5187C39.5062 89.6562 39.3875 90.9625 39.0312 91.675C34.6375 90.25 30.3625 88.2312 26.4438 85.7375ZM51.5 93.2188C47.7 93.2188 43.9 92.7438 40.3375 91.7938C40.6938 90.725 40.8125 89.1813 40.8125 87.2812C40.6937 77.6625 35.7062 68.6375 27.5125 63.175C15.2812 54.8625 12.7875 52.725 12.3125 52.1313C11.2438 50.5875 11.9563 48.45 12.3125 47.3813C14.5688 46.9062 16.9437 46.4313 19.3187 45.9562C18.4875 47.1437 17.775 48.925 18.3688 50.9438C18.6063 51.6562 19.0813 53.7938 39.0312 65.6687C47.225 70.5375 53.0438 78.375 54.9438 87.2812C55.4188 89.5375 55.5375 91.4375 55.3 92.9813C54.2313 93.1 52.925 93.2188 51.5 93.2188ZM56.8438 92.8625C57.0812 91.2 56.9625 89.3 56.3687 87.0438C54.35 77.9 48.2938 69.7063 39.8625 64.7188C21.6938 53.9125 19.9125 51.3 19.675 50.825C19.0813 48.5687 20.5063 46.6687 21.3375 45.8375C23.1187 45.4812 24.9 45.2437 26.8 44.8875C26.5625 45.7188 26.8 46.55 27.0375 47.1437C27.75 48.8063 29.0562 50.1125 30.8375 51.0625L61.2375 67.45C63.9688 68.875 66.4625 70.775 68.7188 72.7937C74.1813 77.9 77.3875 82.175 77.9812 84.7875C71.925 89.0625 64.6813 92.0312 56.8438 92.8625ZM82.1375 55.9312C81.6625 55.8125 81.0687 55.8125 80.5938 55.6938C71.5687 53.7938 48.65 46.55 46.275 45.2437C44.7312 44.4125 44.2563 42.8687 44.0187 41.9188C45.8 41.5625 47.4625 41.325 49.0063 41.0875C50.3125 42.9875 52.3312 44.2938 54.5875 44.7687C62.9 46.7875 83.325 51.6562 91.6375 53.675C92.2313 53.7938 92.7062 54.0312 93.3 54.15C94.725 54.625 95.675 55.1 96.2687 55.575C95.9125 57.5938 95.4375 59.6125 94.725 61.6313C91.875 57.7125 84.75 56.2875 82.1375 55.9312ZM93.8937 52.9625C93.3 52.725 92.7062 52.4875 92.1125 52.3687C83.8 50.4688 63.375 45.4813 55.0625 43.5812C53.2812 43.1063 51.7375 42.1562 50.55 40.85C52.5688 40.4938 54.35 40.1375 56.0125 39.7812C56.725 40.4938 58.3875 41.8 61.5938 42.6313C66.1063 43.8188 89.975 48.0938 91.0438 48.3312C92.35 48.5688 95.0813 49.0438 97.1 49.5187C96.9813 51.1813 96.8625 52.725 96.625 54.2687C96.0312 53.9125 95.0812 53.4375 93.8937 52.9625ZM97.2188 47.5C97.2188 47.7375 97.2188 47.975 97.2188 48.2125C94.725 47.6187 91.5188 47.1437 91.2812 47.1437C91.0437 47.1437 66.4625 42.6313 61.95 41.4438C59.6937 40.85 58.3875 40.0187 57.5562 39.425C59.2188 39.0688 60.7625 38.8313 62.1875 38.475L64.0875 39.425C65.0375 39.9 67.0563 40.375 67.175 40.375C69.7875 40.9688 90.3313 45.4812 97.1 46.4312C97.2188 46.7875 97.2188 47.1437 97.2188 47.5ZM97.2188 45.2437C91.9938 44.5312 77.5062 41.4437 67.65 39.3062C67.65 39.3062 65.6313 38.8312 64.8 38.3563L64.2062 38.1187C66.9375 37.525 69.3125 36.9313 71.5687 36.3375L73.7063 37.4062C74.5375 37.7625 75.3688 38.1188 76.3187 38.2375C77.0312 38.3563 91.5188 41.8 97.1 42.75C97.1 43.4625 97.1 44.4125 97.2188 45.2437ZM96.7438 41.325C91.9938 40.4937 80.95 38 76.3187 36.8125C75.4875 36.6937 74.775 36.4562 74.0625 36.1L73.2312 35.625C75.4875 34.9125 77.625 34.2 79.8812 33.4875C79.8812 33.4875 79.8812 33.4875 80 33.6063L81.9 34.5563C83.325 35.2687 84.8688 35.7437 86.4125 35.9813C86.65 36.1 92.35 37.525 96.2687 37.7625C96.3875 38.95 96.625 40.1375 96.7438 41.325ZM95.9125 36.575C92.1125 36.3375 86.7687 34.9125 86.65 34.7938C85.225 34.5562 83.8 34.0812 82.375 33.4875L81.425 33.0125C82.2562 32.6562 83.2063 32.4188 84.0375 32.0625C84.75 31.825 85.4625 31.5875 86.175 31.35L88.6688 31.7063C89.8563 31.825 90.925 32.0625 92.2313 32.5375C92.9438 32.775 93.6562 32.8937 93.6562 32.8937C94.0125 33.0125 94.4875 33.1312 94.9625 33.25C95.3187 34.3187 95.5563 35.3875 95.9125 36.575ZM94.4875 31.825C94.3687 31.825 94.1313 31.7063 94.0125 31.7063C94.0125 31.7063 93.3 31.5875 92.5875 31.35C91.2812 30.9937 90.0938 30.6375 88.9062 30.5188C90.45 30.0438 91.9938 29.6875 93.5375 29.2125C93.775 30.0438 94.1312 30.875 94.4875 31.825ZM92.5875 27.55C91.0437 27.9062 89.3812 28.3812 87.8375 28.8562C81.3063 28.1437 66.3438 27.4312 60.7625 27.1938C61.3563 26.8375 62.0687 26.4812 62.7812 26.0063C67.2938 25.8875 81.425 25.4125 91.7562 25.7688C91.9938 26.3625 92.35 26.9563 92.5875 27.55ZM91.4 25.175C81.9 24.8188 69.3125 25.175 63.9688 25.2937C64.8 24.8187 65.6313 24.3438 66.5812 23.8687C66.8188 23.75 66.9375 23.6313 67.0562 23.6313C71.3312 23.3937 83.5625 22.8 90.0938 23.1562C90.5687 23.75 90.925 24.4625 91.4 25.175ZM89.7375 22.4438C83.5625 22.0875 73.2312 22.5625 68.2438 22.9187C69.55 22.2062 70.8563 21.4937 71.925 20.7812C75.25 20.6625 83.5625 20.3063 88.3125 20.425C88.7875 21.1375 89.2625 21.85 89.7375 22.4438ZM87.9562 19.8313C83.6812 19.7125 76.9125 19.95 73.2312 20.0688C74.4187 19.3562 75.6063 18.7625 76.675 18.05C78.9313 18.05 83.6812 18.05 86.7687 18.1688C87.0062 18.7625 87.4812 19.3563 87.9562 19.8313Z" fill="url(#paint0_linear)"/>
<path d="M37.2654 21.7938C37.3841 21.675 37.5029 21.5563 37.6216 21.4375C38.3341 20.8438 39.2841 20.1313 40.3529 19.3C40.3529 19.0625 40.2341 18.1125 40.9466 16.0938C39.7591 16.5687 38.5716 17.1625 37.5029 17.9938C36.9091 19.6563 37.1466 21.3188 37.2654 21.7938Z" fill="#429312"/>
<path d="M40.4714 19.3C42.4902 17.875 45.2214 16.45 48.9027 15.025C48.1902 15.1438 47.4777 15.2625 46.6464 15.2625C45.5777 15.2625 43.4402 15.3813 41.1839 16.2125C40.4714 18.1125 40.4714 19.0625 40.4714 19.3Z" fill="#429312"/>
<path d="M38.2152 21.3187C38.0965 21.4375 37.9777 21.5562 37.859 21.675C35.6027 23.6937 34.6527 25.1187 34.6527 25.1187H34.534C34.534 25.1187 34.534 25.1187 34.4152 25.1187C34.4152 25.1187 34.2965 25 34.4152 25C34.4152 25 35.2465 23.6937 37.2652 21.9125C37.1465 21.5562 36.7902 19.8937 37.5027 18.35C36.5527 19.1812 35.7215 20.1312 35.1277 21.3187C35.1277 21.3187 34.2965 23.4562 34.4152 24.1687C34.534 24.8812 34.1777 25.95 33.9402 26.1875C33.9402 26.1875 33.8215 26.3062 33.9402 26.425C33.9402 26.5437 34.1777 26.425 34.1777 26.3062C34.1777 26.1875 34.534 25.475 34.6527 25.3562L35.2465 25.1187C35.6027 25 36.5527 24.8812 38.334 24.7625C40.9465 24.7625 45.1027 24.1687 47.359 20.725C43.084 19.775 39.6402 20.725 38.2152 21.3187Z" fill="#429312"/>
<path d="M51.04 14.3125C51.04 14.3125 50.565 14.55 49.9713 14.6688C49.9713 14.7875 49.9713 14.7875 49.8525 14.7875C47.24 15.7375 45.1025 16.8063 43.3213 17.875C44.2713 17.6375 46.1713 17.4 48.5463 17.875C48.5463 17.5187 48.665 17.0438 48.9025 16.8063C49.14 16.45 50.9213 14.6688 51.04 14.3125Z" fill="#429312"/>
<path d="M42.8463 18.2313C41.065 19.3 39.64 20.25 38.5713 21.0813C39.8775 20.6063 43.0838 19.6563 47.4775 20.6063C47.715 20.1313 47.9525 19.6563 48.19 19.1813C48.19 19.1813 47.8338 18.9438 47.9525 18.4688C47.9525 18.4688 48.3088 18.2313 48.4275 18.2313C48.4275 18.2313 48.4275 18.1125 48.4275 17.875V17.9938C45.6963 17.4 43.5588 17.875 42.8463 18.2313Z" fill="#429312"/>
<path d="M43.2025 17.875C44.9838 16.8063 47.1213 15.8563 49.7338 14.7875C49.8525 14.7875 49.8525 14.6688 49.8525 14.6688C49.615 14.7875 49.2588 14.9063 48.9025 14.9063C45.34 16.3313 42.6088 17.875 40.4713 19.1813C40.4713 18.825 40.4713 17.9938 41.1838 15.975H41.065C40.3525 17.9938 40.3525 18.9438 40.4713 19.1813C39.4025 19.8938 38.4525 20.6063 37.74 21.3188C37.6213 21.4375 37.5025 21.5563 37.3838 21.675C37.265 21.2 37.0275 19.5375 37.74 17.9938C37.6213 17.9938 37.6213 18.1125 37.5025 18.2313C36.9088 19.775 37.265 21.4375 37.265 21.7938C35.2463 23.575 34.5338 24.7625 34.415 24.8813V25C34.415 25 34.415 25 34.5338 25H34.6525C34.6525 25 35.4838 23.575 37.8588 21.5563C37.9775 21.4375 38.0963 21.3188 38.215 21.2C39.64 20.4875 43.2025 19.6563 47.3588 20.6063C47.3588 20.6063 47.3588 20.6063 47.3588 20.4875C42.965 19.5375 39.7588 20.4875 38.4525 20.9625C39.5213 20.1313 40.9463 19.0625 42.7275 18.1125C43.5588 17.875 45.5775 17.4 48.3088 17.9938V17.875C46.0525 17.4 44.2713 17.6375 43.2025 17.875Z" fill="white"/>
<path d="M40.7089 10.8687C40.7089 10.75 40.8276 10.75 40.8276 10.6312C41.1839 10.275 41.5401 9.79998 42.1339 9.32498C42.1339 9.20623 42.0151 8.73123 42.2526 7.66248C41.6589 8.01873 41.0651 8.37498 40.5901 8.84998C40.3526 9.79998 40.5901 10.6312 40.7089 10.8687Z" fill="#429312"/>
<path d="M42.2528 9.32498C43.2028 8.49373 44.5091 7.54373 46.2903 6.47498C45.9341 6.59373 45.5778 6.71248 45.1028 6.71248C44.5091 6.83123 43.4403 7.06873 42.3716 7.54373C42.1341 8.73123 42.1341 9.20623 42.2528 9.32498Z" fill="#429312"/>
<path d="M41.1838 10.6313C41.1838 10.75 41.065 10.75 40.9463 10.8688C39.8775 12.0563 39.5213 12.8875 39.5213 12.8875C39.5213 12.8875 39.5213 12.8875 39.5213 12.7688C39.5213 12.7688 39.8775 12.0563 40.7088 10.9875C40.59 10.75 40.3525 9.91877 40.59 9.08752C40.115 9.56252 39.7588 10.1563 39.5213 10.8688C39.5213 10.8688 39.2838 12.0563 39.2838 12.4125C39.4025 12.7688 39.2838 13.3625 39.165 13.4813V13.6C39.165 13.6 39.2838 13.6 39.2838 13.4813C39.2838 13.4813 39.4025 13.0063 39.5213 13.0063C39.5213 12.8875 39.8775 12.7688 39.8775 12.7688C40.115 12.65 40.4713 12.5313 41.4213 12.4125C42.7275 12.175 44.865 11.5813 45.815 9.68127C43.5588 9.44377 41.8963 10.1563 41.1838 10.6313Z" fill="#429312"/>
<path d="M47.3588 6C47.3588 6 47.1213 6.11875 46.7651 6.2375V6.35625C45.4588 7.06875 44.3901 7.78125 43.5588 8.375C44.0338 8.1375 44.9838 7.9 46.2901 8.01875C46.2901 7.78125 46.2901 7.54375 46.4088 7.425C46.5276 7.30625 47.2401 6.2375 47.3588 6Z" fill="#429312"/>
<path d="M43.3215 8.61249C42.4902 9.32499 41.7777 9.91874 41.3027 10.3937C41.8965 10.0375 43.559 9.32499 45.934 9.56249C46.0527 9.32499 46.1715 9.08749 46.1715 8.73124C46.1715 8.73124 45.934 8.61249 46.0527 8.37499C46.0527 8.37499 46.1715 8.25624 46.2902 8.25624C46.2902 8.25624 46.2902 8.13749 46.2902 8.01874C44.7465 8.01874 43.6777 8.37499 43.3215 8.61249Z" fill="#429312"/>
<path d="M43.5588 8.49376C44.3901 7.90001 45.4588 7.18751 46.7651 6.47501C46.7651 6.47501 46.7651 6.47501 46.7651 6.35626C46.6463 6.47501 46.4088 6.47501 46.2901 6.59376C44.5088 7.54376 43.2026 8.61251 42.2526 9.44376C42.2526 9.32501 42.1338 8.85001 42.3713 7.78126C42.3713 7.78126 42.3713 7.78126 42.2526 7.78126C42.0151 8.85001 42.1338 9.32501 42.1338 9.44376C41.6588 9.91876 41.1838 10.3938 40.8276 10.75C40.8276 10.8688 40.7088 10.8688 40.7088 10.9875C40.5901 10.75 40.3526 9.91876 40.5901 9.08751L40.4713 9.20626C40.2338 10.0375 40.5901 10.8688 40.5901 11.1063C39.6401 12.175 39.4026 12.8875 39.4026 12.8875V13.0063C39.4026 13.0063 39.7588 12.175 40.8276 10.9875C40.8276 10.8688 40.9463 10.8688 41.0651 10.75C41.7776 10.275 43.5588 9.56251 45.8151 9.80001C43.4401 9.56251 41.8963 10.275 41.1838 10.6313C41.6588 10.1563 42.3713 9.44376 43.2026 8.85001C43.5588 8.61251 44.6276 8.25626 46.0526 8.37501C44.9838 8.01876 44.0338 8.25626 43.5588 8.49376Z" fill="white"/>
<path d="M33.5841 18.1125C33.5841 17.9938 33.5841 17.9938 33.5841 17.875C33.5841 17.2812 33.5841 16.6875 33.4653 15.8563C33.5841 15.7375 34.0591 15.5 34.6528 14.3125C34.8903 15.025 35.1278 15.7375 35.1278 16.5688C34.6528 17.4 33.8216 17.875 33.5841 18.1125Z" fill="#429312"/>
<path d="M33.465 15.7375C33.2275 14.3125 32.8713 12.5313 32.04 10.3938C32.2775 10.75 32.515 11.1063 32.8713 11.4625C33.3463 11.9375 34.0588 13.0063 34.5338 14.1938C33.94 15.2625 33.5838 15.6188 33.465 15.7375Z" fill="#429312"/>
<path d="M33.4652 17.5188C33.4652 17.6375 33.4652 17.7563 33.4652 17.7563C33.4652 19.5375 33.2277 20.4875 33.2277 20.4875C33.2277 20.4875 33.2277 20.4875 33.2277 20.6063H33.3465C33.3465 20.6063 33.584 19.775 33.584 18.2313C33.8215 18.1125 34.6527 17.6375 35.1277 16.6875C35.1277 17.4 35.009 18.1125 34.7715 18.9438C34.7715 18.9438 34.1777 20.1313 33.8215 20.3688C33.4652 20.6063 33.109 21.2 33.109 21.3188C33.109 21.3188 33.109 21.4375 32.9902 21.4375L32.8715 21.3188C32.8715 21.2 33.109 20.8438 33.109 20.725C33.109 20.6063 32.9902 20.25 32.9902 20.25C32.8715 20.0125 32.634 19.5375 31.9215 18.825C30.9715 17.6375 29.5465 15.6188 30.1402 13.2438C32.159 14.7875 33.2277 16.5688 33.4652 17.5188Z" fill="#429312"/>
<path d="M31.5652 9.08752C31.5652 9.08752 31.6839 9.32502 31.8027 9.68127C31.8027 9.68127 31.8027 9.68127 31.8027 9.80002C32.3964 11.3438 32.7527 12.65 32.9902 13.8375C32.7527 13.2438 32.1589 12.4125 30.9714 11.5813C31.0902 11.4625 31.3277 11.225 31.3277 10.9875C31.3277 10.75 31.4464 9.32502 31.5652 9.08752Z" fill="#429312"/>
<path d="M32.9902 14.1938C33.2277 15.3813 33.3465 16.45 33.3465 17.2813C33.109 16.5688 32.159 14.6688 30.0215 13.125C30.1402 12.8875 30.259 12.5313 30.3777 12.2938C30.3777 12.2938 30.6152 12.2938 30.734 12.0563C30.734 12.0563 30.734 11.8188 30.6152 11.7L30.734 11.5813C32.2777 12.65 32.8715 13.7188 32.9902 14.1938Z" fill="#429312"/>
<path d="M32.9904 13.9563C32.7529 12.7688 32.3966 11.4625 31.8029 9.9188V9.80005C31.9216 9.9188 31.9216 10.1563 32.0404 10.3938C32.7529 12.5313 33.2279 14.3125 33.4654 15.7375C33.5841 15.6188 34.0591 15.2625 34.6529 14.1938C34.6529 14.1938 34.6529 14.1938 34.6529 14.3125C34.0591 15.3813 33.5841 15.7375 33.4654 15.8563C33.5841 16.6875 33.5841 17.2813 33.5841 17.875C33.5841 17.9938 33.5841 17.9938 33.5841 18.1125C33.8216 17.9938 34.6529 17.4 35.1279 16.5688V16.6875C34.6529 17.6375 33.8216 18.1125 33.5841 18.2313C33.5841 19.775 33.3466 20.6063 33.3466 20.6063C33.3466 20.6063 33.3466 20.6063 33.2279 20.6063C33.2279 20.6063 33.2279 20.6063 33.2279 20.4875C33.2279 20.4875 33.4654 19.5375 33.4654 17.7563C33.4654 17.6375 33.4654 17.5188 33.4654 17.5188C33.2279 16.5688 32.2779 14.7875 30.1404 13.2438C32.2779 14.7875 33.1091 16.5688 33.4654 17.4C33.4654 16.5688 33.3466 15.6188 33.1091 14.3125C32.8716 13.8375 32.3966 12.7688 30.9716 11.8188C32.1591 12.5313 32.7529 13.3625 32.9904 13.9563Z" fill="white"/>
<path d="M23.9503 30.4812C23.8315 30.4812 23.8315 30.4812 23.7128 30.3625C23.2378 30.2437 22.644 30.125 21.9315 30.0062C21.9315 29.8875 21.694 29.4125 20.8628 28.5812C21.5753 28.5812 22.2878 28.5812 23.0003 28.7C23.594 29.4125 23.8315 30.2437 23.9503 30.4812Z" fill="#429312"/>
<path d="M21.8128 30.0062C20.5065 29.7687 18.7253 29.65 16.7065 29.7687C17.0628 29.65 17.5378 29.5312 17.894 29.4125C18.4878 29.175 19.5565 28.7 20.744 28.5812C21.5753 29.4125 21.694 29.8875 21.8128 30.0062Z" fill="#429312"/>
<path d="M23.3564 30.4812C23.4751 30.4812 23.5939 30.4812 23.5939 30.6C25.1376 31.075 25.9689 31.55 25.9689 31.55C25.9689 31.55 25.9689 31.55 26.0876 31.55V31.4312C26.0876 31.4312 25.3751 30.9562 24.0689 30.6C24.0689 30.3625 23.8314 29.5312 23.1189 28.8187C23.7126 28.9375 24.4251 29.2937 25.0189 29.7687C25.0189 29.7687 25.8501 30.6 26.0876 31.075C26.2064 31.4312 26.5626 31.9062 26.8001 32.025L26.9189 32.1437H26.8001C26.8001 32.1437 26.4439 31.7875 26.3251 31.7875C26.2064 31.7875 25.8501 31.7875 25.8501 31.7875C25.6126 31.7875 25.1376 31.9062 24.3064 32.3812C23.0001 32.975 20.8626 33.5687 18.9626 32.3812C20.6251 30.8375 22.5251 30.4812 23.3564 30.4812Z" fill="#429312"/>
<path d="M15.519 30.0062C15.519 30.0062 15.7565 30.0062 16.1128 30.0062C16.1128 30.0062 16.1128 30.125 16.2315 30.0062C17.7753 29.8875 19.0815 29.8875 20.1503 30.0062C19.5565 30.125 18.6065 30.3625 17.5378 31.1937C17.419 31.075 17.3003 30.8375 17.0628 30.7187C16.8253 30.6 15.519 30.125 15.519 30.0062Z" fill="#429312"/>
<path d="M20.3876 30.0062C21.5751 30.125 22.4063 30.2437 23.2376 30.4812C22.5251 30.4812 20.6251 30.8375 18.7251 32.2625C18.4876 32.1437 18.2501 31.9062 18.0126 31.6687C18.0126 31.6687 18.1313 31.4312 17.8938 31.3125H17.6563C17.6563 31.3125 17.6563 31.1937 17.5376 31.1937C18.8438 30.2437 19.9126 30.0062 20.3876 30.0062Z" fill="#429312"/>
<path d="M20.1503 30.0063C19.0815 29.8875 17.7753 29.8875 16.2315 30.0063H16.1128C16.2315 30.0063 16.469 30.0063 16.7065 29.8875C18.844 29.7688 20.5065 29.8875 21.8128 30.125C21.8128 30.0063 21.5753 29.5313 20.744 28.7C20.744 28.7 20.744 28.7 20.8628 28.7C21.694 29.5313 21.8128 30.0063 21.9315 30.125C22.644 30.2438 23.2378 30.3625 23.7128 30.4813C23.8315 30.4813 23.8315 30.4813 23.9503 30.6C23.9503 30.3625 23.594 29.4125 23.0003 28.8188H23.119C23.8315 29.4125 23.9503 30.3625 24.069 30.6C25.494 31.075 26.0878 31.4313 26.0878 31.4313V31.55C26.0878 31.55 26.0878 31.55 25.969 31.55C25.969 31.55 25.2565 31.075 23.594 30.6C23.4753 30.6 23.4753 30.6 23.3565 30.4813C22.5253 30.4813 20.6253 30.8375 18.7253 32.2625C20.6253 30.7188 22.5253 30.4813 23.2378 30.4813C22.5253 30.2438 21.5753 30.125 20.3878 30.0063C19.9128 30.0063 18.844 30.2438 17.5378 31.1938C18.6065 30.3625 19.5565 30.125 20.1503 30.0063Z" fill="white"/>
<path d="M19.7938 25.9688C19.675 25.85 19.675 25.85 19.7938 25.9688C19.4375 25.85 19.0812 25.7312 18.725 25.6125C18.725 25.4937 18.6063 25.2562 18.25 24.7812C18.6063 24.7812 18.9625 24.9 19.3187 25.0187C19.675 25.2562 19.7938 25.7312 19.7938 25.9688Z" fill="#429312"/>
<path d="M18.7253 25.4937C18.0128 25.2562 17.1815 25.1375 16.1128 25.0187C16.3503 25.0187 16.5878 25.0187 16.7065 24.9C17.0628 24.7812 17.6565 24.6625 18.2503 24.6625C18.6065 25.1375 18.6065 25.375 18.7253 25.4937Z" fill="#429312"/>
<path d="M19.4375 25.85H19.5562C20.3875 26.2062 20.7437 26.5625 20.7437 26.5625C20.7437 26.5625 20.3875 26.325 19.675 25.9687C19.675 25.85 19.675 25.375 19.3187 25.0187C19.675 25.1375 19.9125 25.375 20.2687 25.6125C20.2687 25.6125 20.625 26.0875 20.7437 26.325C20.7437 26.5625 20.9812 26.8 20.9812 26.8C20.9812 26.8 20.9812 26.8 20.9812 26.9187H20.8625C20.8625 26.9187 20.7437 26.6812 20.625 26.6812H20.3875C20.2687 26.6812 20.0312 26.6812 19.5562 26.8C18.8437 27.0375 17.6562 27.1562 16.825 26.4437C18.0125 25.85 19.0812 25.85 19.4375 25.85Z" fill="#429312"/>
<path d="M15.4001 25.0187C15.4001 25.0187 15.5189 25.0187 15.7564 25.0187C16.5876 25.0187 17.1814 25.1375 17.7751 25.2562C17.5376 25.2562 16.9439 25.375 16.3501 25.7312C16.3501 25.6125 16.2314 25.4937 16.1126 25.4937C16.1126 25.4937 15.4001 25.1375 15.4001 25.0187Z" fill="#429312"/>
<path d="M17.8938 25.375C18.4876 25.4937 18.9626 25.6125 19.3188 25.85C18.9626 25.85 18.0126 25.85 16.8251 26.4437C16.7063 26.325 16.5876 26.2063 16.4688 26.0875C16.4688 26.0875 16.5876 25.9687 16.4688 25.85H16.3501C16.3501 25.85 16.3501 25.85 16.3501 25.7312C17.0626 25.375 17.6563 25.375 17.8938 25.375Z" fill="#429312"/>
<path d="M17.7751 25.375C17.1813 25.2562 16.4688 25.1375 15.7563 25.1375C15.8751 25.1375 15.9938 25.1375 15.9938 25.1375C17.0626 25.2562 18.0126 25.375 18.6063 25.6125C18.6063 25.4937 18.4876 25.2562 18.1313 24.7812C18.4876 25.2562 18.6063 25.4937 18.6063 25.6125C18.9626 25.7312 19.3188 25.85 19.5563 25.9688H19.6751C19.6751 25.85 19.5563 25.375 19.3188 25.0187C19.3188 25.0187 19.3188 25.0187 19.4376 25.0187C19.7938 25.375 19.7938 25.85 19.7938 25.9688C20.5063 26.325 20.7438 26.5625 20.8626 26.5625C20.8626 26.5625 20.5063 26.2062 19.6751 25.85H19.5563C19.0813 25.7312 18.1313 25.85 17.0626 26.4437C18.1313 25.85 19.0813 25.7312 19.5563 25.85C19.2001 25.7312 18.7251 25.6125 18.1313 25.375C17.8938 25.375 17.3001 25.375 16.5876 25.85C16.9438 25.4937 17.5376 25.375 17.7751 25.375Z" fill="white"/>
<path d="M24.9001 27.8687C24.9001 27.8687 24.9001 27.75 24.7813 27.75C24.6626 27.5125 24.5438 27.1562 24.4251 26.6812C24.3063 26.6812 24.0688 26.5625 23.4751 26.2062C23.4751 26.5625 23.5938 27.0375 23.7126 27.3937C24.1876 27.75 24.7813 27.8687 24.9001 27.8687Z" fill="#429312"/>
<path d="M24.4251 26.6813C24.1876 25.9688 23.9501 24.9 23.8313 23.7125C23.8313 23.95 23.8313 24.1875 23.7126 24.425C23.5938 24.7813 23.4751 25.375 23.4751 26.2063C24.0688 26.5625 24.3063 26.5625 24.4251 26.6813Z" fill="#429312"/>
<path d="M24.9 27.5125C24.9 27.5125 24.9 27.6312 25.0187 27.6312C25.375 28.4625 25.7312 28.9375 25.7312 28.9375C25.7312 28.9375 25.375 28.5812 25.0187 27.75C24.9 27.75 24.3062 27.75 23.95 27.3937C24.0687 27.75 24.3062 28.1062 24.6625 28.4625C24.6625 28.4625 25.2562 28.9375 25.4937 28.9375C25.7312 28.9375 25.9687 29.175 26.0875 29.2937C26.0875 29.2937 26.0875 29.2937 26.2062 29.2937V29.175L25.9687 28.9375V28.7C25.9687 28.5812 25.9687 28.225 26.2062 27.75C26.4437 26.9187 26.6812 25.6125 25.85 24.6625C24.7812 25.85 24.7812 27.0375 24.9 27.5125Z" fill="#429312"/>
<path d="M23.8315 23C23.8315 23 23.8315 23.1187 23.8315 23.3562C23.9503 24.1875 24.069 25.0187 24.1878 25.6125C24.1878 25.2562 24.3065 24.6625 24.6628 24.0687C24.544 24.0687 24.4253 23.95 24.4253 23.8312C24.3065 23.7125 23.9503 23 23.8315 23Z" fill="#429312"/>
<path d="M24.3064 25.85C24.4251 26.4437 24.6626 27.0375 24.7814 27.3937C24.7814 26.9187 24.7814 25.85 25.4939 24.6625C25.3751 24.5437 25.2564 24.425 25.1376 24.3063C25.1376 24.3063 25.0189 24.425 24.9001 24.3063V24.1875C24.9001 24.1875 24.9001 24.1875 24.7814 24.1875C24.3064 24.9 24.3064 25.4937 24.3064 25.85Z" fill="#429312"/>
<path d="M24.3065 25.6125C24.1877 25.0188 24.069 24.1875 23.9502 23.3563C23.9502 23.475 23.9502 23.5938 23.9502 23.7125C24.069 24.9 24.3065 25.9688 24.544 26.6813C24.4252 26.6813 24.1877 26.5625 23.594 26.2063C24.1877 26.5625 24.4252 26.6813 24.544 26.6813C24.6627 27.0375 24.7815 27.3938 24.9002 27.75C24.9002 27.75 24.9002 27.8688 25.019 27.8688C24.9002 27.8688 24.3065 27.75 23.9502 27.3938C23.9502 27.3938 23.9502 27.3938 23.9502 27.5125C24.4252 27.8688 24.9002 27.8688 25.019 27.8688C25.3752 28.5813 25.7315 28.9375 25.7315 29.0563C25.7315 29.0563 25.3752 28.7 25.019 27.75C25.019 27.75 25.019 27.6313 24.9002 27.6313C24.7815 27.1563 24.9002 25.9688 25.6127 24.7813C24.9002 25.9688 24.9002 27.1563 24.9002 27.5125C24.7815 27.1563 24.544 26.5625 24.4252 25.9688C24.4252 25.7313 24.4252 25.0188 24.9002 24.1875C24.3065 24.7813 24.3065 25.375 24.3065 25.6125Z" fill="white"/>
</g>
<defs>
<filter id="filter0_d" x="0" y="0" width="103" height="103" filterUnits="userSpaceOnUse" color-interpolation-filters="sRGB">
<feFlood flood-opacity="0" result="BackgroundImageFix"/>
<feColorMatrix in="SourceAlpha" type="matrix" values="0 0 0 0 0 0 0 0 0 0 0 0 0 0 0 0 0 0 127 0" result="hardAlpha"/>
<feOffset dy="4"/>
<feGaussianBlur stdDeviation="2"/>
<feColorMatrix type="matrix" values="0 0 0 0 0 0 0 0 0 0 0 0 0 0 0 0 0 0 0.25 0"/>
<feBlend mode="normal" in2="BackgroundImageFix" result="effect1_dropShadow"/>
<feBlend mode="normal" in="SourceGraphic" in2="effect1_dropShadow" result="shape"/>
</filter>
<linearGradient id="paint0_linear" x1="12.4474" y1="5.56285" x2="88.4023" y2="87.1281" gradientUnits="userSpaceOnUse">
<stop stop-color="#3CA55C"/>
<stop offset="1" stop-color="#B5AC49"/>
</linearGradient>
</defs>
</svg>
