<svg width="103" height="104" viewBox="0 0 103 104" fill="none" xmlns="http://www.w3.org/2000/svg">
<g filter="url(#filter0_d)">
<path d="M51.5 2.58398C76.675 2.58398 97.2188 23.1277 97.2188 48.3027C97.2188 73.4777 76.675 94.0215 51.5 94.0215C26.325 94.0215 5.78125 73.4777 5.78125 48.3027C5.78125 23.1277 26.325 2.58398 51.5 2.58398ZM51.5 0.802734C25.2563 0.802734 4 22.059 4 48.3027C4 74.5465 25.2563 95.8027 51.5 95.8027C77.7438 95.8027 99 74.5465 99 48.3027C99 22.059 77.7438 0.802734 51.5 0.802734Z" fill="url(#paint0_linear)"/>
<path d="M93.0622 36.5461C92.9435 36.3086 92.706 36.0711 92.4685 36.0711L74.7747 30.2524L70.8559 18.1399C70.7372 17.6649 70.2622 17.4274 69.7872 17.5461C69.6684 17.5461 58.3872 19.9211 52.6872 19.9211H50.3122C44.6122 19.9211 33.331 17.5461 33.2122 17.5461C32.7372 17.4274 32.381 17.6649 32.1435 18.1399L28.2247 30.2524L10.531 36.0711C10.2935 36.1899 10.056 36.3086 9.93721 36.5461C9.81846 36.7836 9.81846 37.0211 9.93721 37.2586L11.4809 40.2274C11.5997 40.3461 11.7185 40.5836 11.956 40.5836C11.956 40.5836 13.4997 41.2961 16.3497 42.2461L16.2309 42.6024C15.9934 43.0774 16.231 43.5524 16.706 43.7899C16.8247 43.7899 16.9435 43.9086 17.0622 43.9086C17.4185 43.9086 17.7747 43.6711 17.8935 43.3149L18.1309 42.8399C19.4372 43.1961 20.9809 43.6711 22.7622 44.1461L22.6435 44.6211C22.406 45.0961 22.6435 45.5711 23.1185 45.8086C23.2372 45.8086 23.3559 45.9274 23.4747 45.9274H23.5935V72.5274H22.1684C21.6934 72.5274 21.2185 72.8836 21.2185 73.4774V78.4649C21.2185 78.9399 21.5747 79.4149 22.1684 79.4149H81.306C81.781 79.4149 82.256 79.0586 82.256 78.4649V73.4774C82.256 73.0024 81.8997 72.5274 81.306 72.5274H79.881V45.6899H79.9997C80.1185 45.6899 80.2372 45.6899 80.3559 45.5711C80.8309 45.3336 81.0685 44.8586 80.831 44.3836L80.7122 43.9086C82.4935 43.4336 83.9185 43.0774 85.3435 42.6024L85.581 43.0774C85.6997 43.4336 86.0559 43.6711 86.4122 43.6711C86.5309 43.6711 86.6497 43.6711 86.7685 43.5524C87.2435 43.3149 87.481 42.8399 87.2435 42.3649L87.1247 42.0086C89.9747 41.0586 91.3997 40.3461 91.5185 40.3461C91.756 40.2274 91.8747 40.1086 91.9935 39.9899L93.5372 37.0211C93.1809 37.0211 93.181 36.7836 93.0622 36.5461ZM69.431 19.4461L73.2309 31.2024L77.9809 42.7211C76.5559 43.0774 74.8934 43.4336 73.2309 43.6711L66.6997 19.8024C67.8872 19.8024 68.8372 19.5649 69.431 19.4461ZM76.556 67.8961H75.0122V45.2149C75.9622 44.9774 77.031 44.8586 77.8622 44.6211V72.1711H77.3872V68.7274C77.3872 68.2524 77.031 67.8961 76.556 67.8961ZM62.6622 67.8961H61.1185V47.1149C62.5435 46.9961 63.8497 46.8774 65.156 46.7586L65.2747 47.5899C65.3935 48.0649 65.7497 48.3024 66.1059 48.3024H66.2247C66.6997 48.1836 67.056 47.7086 66.9372 47.2336L66.8185 46.5211C68.5997 46.2836 70.2622 46.0461 71.806 45.8086L72.0434 46.6399C72.1622 46.9961 72.5185 47.3524 72.8747 47.3524H72.9935V68.0149H71.4497C70.9747 68.0149 70.4997 68.3711 70.4997 68.9649V72.4086H63.3747V68.9649C63.6122 68.2524 63.1372 67.8961 62.6622 67.8961ZM61.831 69.6774V72.2899H58.6247V69.6774H61.831ZM72.5185 69.6774H75.7247V72.2899H72.5185V69.6774ZM65.0372 20.2774L71.5685 44.0274C70.0247 44.2649 68.3622 44.5024 66.6997 44.7399L62.306 20.7524C63.256 20.6336 64.0872 20.3961 65.0372 20.2774ZM60.5247 20.9899L64.9184 44.9774C63.0184 45.2149 60.9997 45.3336 58.8622 45.4524L56.7247 21.4649C57.9122 21.3461 59.2185 21.2274 60.5247 20.9899ZM52.331 21.7024H52.5685C53.281 21.7024 53.9934 21.7024 54.8247 21.5836L56.9622 45.4524C55.5372 45.4524 54.1122 45.5711 52.5685 45.5711H52.331V21.7024ZM51.4997 49.3711C51.9747 49.3711 52.4497 49.0149 52.4497 48.4211V47.3524H52.6872C54.231 47.3524 55.7747 47.3524 57.1997 47.2336V47.8274C57.1997 48.3024 57.6747 48.6586 58.031 48.6586C58.031 48.6586 58.031 48.6586 58.1497 48.6586C58.6247 48.6586 58.9809 48.1836 58.9809 47.7086V47.2336C59.0997 47.2336 59.2185 47.2336 59.3372 47.2336V68.0149H57.7934C57.3184 68.0149 56.8435 68.3711 56.8435 68.9649V72.4086H46.156V68.9649C46.156 68.4899 45.7997 68.0149 45.206 68.0149H43.6622V47.2336C43.781 47.2336 43.8997 47.2336 44.0185 47.2336V47.7086C44.0185 48.1836 44.3747 48.6586 44.8497 48.6586C44.8497 48.6586 44.8497 48.6586 44.9685 48.6586C45.4435 48.6586 45.7997 48.3024 45.7997 47.8274V47.2336C47.2247 47.2336 48.7685 47.3524 50.3122 47.3524H50.5497V48.4211C50.5497 49.0149 51.0247 49.3711 51.4997 49.3711ZM31.431 67.8961H29.8872V47.2336H30.006C30.3622 47.2336 30.7185 46.9961 30.8372 46.5211L31.0747 45.6899C32.6184 45.9274 34.3997 46.1649 36.0622 46.4024L35.9435 47.1149C35.8247 47.5899 36.181 48.0649 36.656 48.1836H36.7747C37.2497 48.1836 37.6059 47.8274 37.6059 47.4711L37.7247 46.6399C39.031 46.7586 40.3372 46.8774 41.7622 46.9961V67.7774H40.2185C39.7435 67.7774 39.2685 68.1336 39.2685 68.7274V72.1711H32.1435V68.7274C32.2622 68.2524 31.906 67.8961 31.431 67.8961ZM27.3935 69.6774H30.5997V72.2899H27.3935V69.6774ZM26.4434 67.8961C25.9684 67.8961 25.4935 68.2524 25.4935 68.8461V72.2899H25.0185V44.7399C25.9685 44.9774 26.9185 45.0961 27.8685 45.3336V68.0149H26.4434V67.8961ZM41.1684 69.6774H44.3747V72.2899H41.1684V69.6774ZM50.3122 21.7024H50.5497V45.5711H50.3122C48.7685 45.5711 47.3434 45.5711 45.9184 45.4524L48.056 21.5836C48.8872 21.7024 49.5997 21.7024 50.3122 21.7024ZM46.2747 21.4649L44.1372 45.4524C41.9997 45.3336 40.0997 45.2149 38.081 44.9774L42.4747 20.9899C43.781 21.2274 45.0872 21.3461 46.2747 21.4649ZM40.6935 20.7524L36.2997 44.7399C34.6372 44.5024 32.9747 44.2649 31.431 44.0274L37.9622 20.2774C38.9122 20.3961 39.7435 20.6336 40.6935 20.7524ZM29.7685 31.3211C29.7685 31.3211 29.7685 31.2024 29.7685 31.3211C29.7685 31.2024 29.7685 31.2024 29.7685 31.3211L33.5685 19.4461C34.1622 19.5649 35.1122 19.8024 36.181 19.9211L29.6497 43.7899C27.9872 43.4336 26.3247 43.1961 24.8997 42.8399L29.7685 31.3211ZM12.906 39.0399L12.0747 37.3774L19.3184 35.0024L17.0622 40.5836C14.806 39.8711 13.4997 39.2774 12.906 39.0399ZM23.2372 42.3649C21.456 41.8899 20.0309 41.5336 18.6059 41.0586L21.456 34.1711L27.2747 32.2711L23.2372 42.3649ZM80.2372 74.0711V77.2774H22.8809V74.0711H24.306H26.5622H31.5497H40.456H45.4435H57.9122H62.8997H71.806H76.7934H79.0497H80.2372ZM79.7622 42.3649L75.6059 32.3899L81.4247 34.2899L84.2747 41.1774C82.9685 41.5336 81.4247 42.0086 79.7622 42.3649ZM90.0935 39.0399C89.4997 39.2774 88.1935 39.8711 86.056 40.5836L83.7997 35.0024L91.0434 37.3774L90.0935 39.0399Z" fill="url(#paint1_linear)"/>
</g>
<defs>
<filter id="filter0_d" x="0" y="0.802734" width="103" height="103" filterUnits="userSpaceOnUse" color-interpolation-filters="sRGB">
<feFlood flood-opacity="0" result="BackgroundImageFix"/>
<feColorMatrix in="SourceAlpha" type="matrix" values="0 0 0 0 0 0 0 0 0 0 0 0 0 0 0 0 0 0 127 0"/>
<feOffset dy="4"/>
<feGaussianBlur stdDeviation="2"/>
<feColorMatrix type="matrix" values="0 0 0 0 0 0 0 0 0 0 0 0 0 0 0 0 0 0 0.25 0"/>
<feBlend mode="normal" in2="BackgroundImageFix" result="effect1_dropShadow"/>
<feBlend mode="normal" in="SourceGraphic" in2="effect1_dropShadow" result="shape"/>
</filter>
<linearGradient id="paint0_linear" x1="92.117" y1="76.9148" x2="16.1975" y2="23.4262" gradientUnits="userSpaceOnUse">
<stop stop-color="#A8C0FF"/>
<stop offset="1" stop-color="#3F2B96"/>
</linearGradient>
<linearGradient id="paint1_linear" x1="89.8399" y1="79.2113" x2="13.9206" y2="25.7227" gradientUnits="userSpaceOnUse">
<stop stop-color="#A8C0FF"/>
<stop offset="1" stop-color="#3F2B96"/>
</linearGradient>
</defs>
</svg>
