<svg width="103" height="104" viewBox="0 0 103 104" fill="none" xmlns="http://www.w3.org/2000/svg">
<g filter="url(#filter0_d)">
<path d="M51.5 2.58398C76.675 2.58398 97.2188 23.1277 97.2188 48.3027C97.2188 73.4777 76.675 94.0215 51.5 94.0215C26.325 94.0215 5.78125 73.4777 5.78125 48.3027C5.78125 23.1277 26.325 2.58398 51.5 2.58398ZM51.5 0.802734C25.2563 0.802734 4 22.059 4 48.3027C4 74.5465 25.2563 95.8027 51.5 95.8027C77.7438 95.8027 99 74.5465 99 48.3027C99 22.059 77.7438 0.802734 51.5 0.802734Z" fill="url(#paint0_linear)"/>
<path d="M62.3058 37.2592H62.187V27.878H62.4245C64.2058 27.878 65.6308 26.453 65.6308 24.6717V24.4342C65.6308 22.8905 64.562 21.703 63.137 21.3467C62.662 16.5967 57.5558 12.9155 51.4995 12.9155C45.4433 12.9155 40.337 16.5967 39.862 21.3467C38.437 21.703 37.3683 22.8905 37.3683 24.4342V24.6717C37.3683 26.453 38.7933 27.878 40.5745 27.878H40.812V37.2592H40.6933C37.8433 37.2592 35.587 39.5155 35.587 42.3655V80.9592C35.587 82.3842 36.7745 83.6905 38.3183 83.6905H64.6808C66.1058 83.6905 67.412 82.503 67.412 80.9592V42.3655C67.412 39.5155 65.037 37.2592 62.3058 37.2592ZM51.4995 14.6967C56.6058 14.6967 60.762 17.5467 61.3558 21.228H41.762C42.237 17.5467 46.3933 14.6967 51.4995 14.6967ZM39.1495 24.6717V24.4342C39.1495 23.603 39.7433 23.0092 40.5745 23.0092H62.3058C63.137 23.0092 63.7308 23.603 63.7308 24.4342V24.6717C63.7308 25.503 63.137 26.0967 62.3058 26.0967H61.1183H41.762H40.5745C39.862 26.0967 39.1495 25.503 39.1495 24.6717ZM60.287 27.878V40.4655C60.287 43.1967 58.0308 45.453 55.2995 45.453H47.8183C45.087 45.453 42.8308 43.1967 42.8308 40.4655V27.878H60.287ZM64.6808 81.9092H38.3183C37.8433 81.9092 37.3683 81.553 37.3683 80.9592V75.9717C39.0308 75.9717 42.4745 75.853 44.2558 75.853C48.1745 75.853 50.0745 73.8342 50.0745 70.0342C50.0745 65.1655 49.0058 64.6905 44.0183 64.5717C43.4245 64.5717 42.9495 64.3342 42.5933 63.978C41.6433 63.028 41.5245 61.2467 41.5245 60.5342V52.9342C41.5245 52.4592 41.1683 51.9842 40.5745 51.9842C39.9808 51.9842 39.6245 52.3405 39.6245 52.9342V60.5342C39.6245 60.653 39.6245 63.6217 41.1683 65.2842C41.8808 65.9967 42.8308 66.353 43.8995 66.353C46.2745 66.353 47.3433 66.353 47.8183 66.9467C46.6308 66.9467 44.612 67.0655 43.187 66.9467C43.0683 66.9467 42.8308 67.0655 42.8308 67.1842C42.8308 67.303 42.9495 67.5405 43.0683 67.5405C43.7808 67.6592 44.7308 67.6592 45.562 67.6592C46.512 67.6592 47.3433 67.6592 48.0558 67.6592C48.1745 68.0155 48.1745 68.3717 48.1745 68.8467C47.1058 68.8467 44.7308 68.9655 43.187 68.8467C43.0683 68.8467 42.8308 68.9655 42.8308 69.0842C42.8308 69.203 42.9495 69.4405 43.0683 69.4405C43.7808 69.5592 44.7308 69.5592 45.562 69.5592C46.512 69.5592 47.462 69.5592 48.1745 69.4405C48.1745 69.678 48.1745 69.9155 48.1745 70.0342C48.1745 70.2717 48.1745 70.3905 48.1745 70.5092C47.1058 70.5092 44.7308 70.628 43.187 70.5092C43.0683 70.5092 42.8308 70.628 42.8308 70.7467C42.8308 70.8655 42.9495 71.103 43.0683 71.103C43.7808 71.2217 44.7308 71.2217 45.562 71.2217C46.512 71.2217 47.462 71.2217 48.0558 71.2217C47.937 71.6967 47.937 72.053 47.6995 72.2905C46.512 72.4092 44.4933 72.528 43.0683 72.4092C42.9495 72.4092 42.712 72.528 42.712 72.6467C42.712 72.7655 42.8308 73.003 42.9495 73.003C43.3058 73.003 43.7808 73.003 44.2558 73.003C45.3245 73.003 46.3933 73.003 47.2245 72.8842C46.512 73.8342 45.2058 74.0717 43.8995 74.0717C42.1183 74.0717 38.5558 74.0717 37.012 74.1905V42.2467C37.012 40.4655 38.5558 38.9217 40.337 38.9217H40.4558V40.3467C40.4558 44.1467 43.5433 47.2342 47.3433 47.2342H54.8245C58.6245 47.2342 61.712 44.1467 61.712 40.3467V38.9217H61.8308C63.612 38.9217 65.1558 40.4655 65.1558 42.2467V68.9655C65.037 68.9655 64.9183 69.0842 64.9183 69.0842C64.087 69.678 60.1683 69.678 56.8433 69.4405C56.2495 69.4405 55.7745 69.3217 55.4183 68.9655C55.2995 68.8467 55.2995 68.728 55.1808 68.728C56.012 68.8467 57.6745 68.9655 59.0995 68.9655C59.5745 68.9655 60.0495 68.9655 60.4058 68.9655C60.5245 68.9655 60.6433 68.8467 60.6433 68.6092C60.6433 68.4905 60.5245 68.253 60.287 68.3717C58.387 68.4905 55.4183 68.253 54.7058 68.253C54.587 67.8967 54.4683 67.5405 54.4683 67.1842C54.587 67.1842 56.1308 67.303 57.7933 67.303C58.6245 67.303 59.5745 67.303 60.287 67.1842C60.4058 67.1842 60.5245 67.0655 60.5245 66.828C60.5245 66.7092 60.4058 66.5905 60.1683 66.5905C58.0308 66.828 54.4683 66.5905 54.4683 66.5905H54.3495C54.3495 66.353 54.3495 66.2342 54.3495 65.9967V65.878C54.3495 65.878 54.3495 65.7592 54.3495 65.5217C54.4683 65.5217 56.012 65.6405 57.6745 65.6405C58.5058 65.6405 59.4558 65.6405 60.1683 65.5217C60.287 65.5217 60.4058 65.403 60.4058 65.1655C60.4058 65.0467 60.287 64.928 60.0495 64.928C58.0308 65.1655 54.7058 64.928 54.3495 64.928C54.4683 64.5717 54.587 64.2155 54.7058 63.7405C55.2995 63.7405 56.3683 63.8592 57.5558 63.8592C58.387 63.8592 59.337 63.8592 60.0495 63.7405C60.1683 63.7405 60.287 63.6217 60.287 63.3842C60.287 63.2655 60.1683 63.1467 59.9308 63.1467C58.387 63.2655 56.2495 63.2655 55.062 63.1467C55.4183 62.7905 55.8933 62.4342 56.487 62.4342C59.4558 62.4342 60.5245 59.5842 60.6433 58.0405V46.403C60.6433 45.928 60.287 45.453 59.6933 45.453C59.0995 45.453 58.7433 45.8092 58.7433 46.403V57.9217C58.7433 58.0405 58.5058 60.5342 56.3683 60.5342C53.0433 60.5342 52.212 64.3342 52.212 65.7592C52.0933 67.778 52.5683 69.3217 53.3995 70.2717C54.112 70.9842 54.9433 71.3405 56.012 71.3405C56.7245 71.3405 58.1495 71.4592 59.812 71.4592C61.4745 71.4592 63.3745 71.3405 64.562 70.9842V80.9592C65.6308 81.553 65.1558 81.9092 64.6808 81.9092Z" fill="url(#paint1_linear)"/>
<path d="M44.6126 32.1527H50.0751C50.1939 32.1527 50.3126 32.0339 50.3126 31.9152C50.3126 31.7964 50.1939 31.6777 50.0751 31.6777H44.6126C44.4939 31.6777 44.3751 31.7964 44.3751 31.9152C44.3751 32.0339 44.4939 32.1527 44.6126 32.1527Z" fill="url(#paint2_linear)"/>
<path d="M54.2305 42.4839C54.2305 42.4839 53.1617 43.1964 51.618 43.1964C50.0742 43.1964 48.6492 42.4839 48.6492 42.4839C48.5305 42.3652 48.293 42.4839 48.293 42.6027C48.1742 42.7214 48.293 42.9589 48.4117 42.9589C48.5305 42.9589 49.9555 43.6714 51.618 43.6714C53.2805 43.6714 54.468 42.9589 54.5867 42.9589C54.7055 42.8402 54.8242 42.7214 54.7055 42.6027C54.5867 42.4839 54.3492 42.3652 54.2305 42.4839Z" fill="url(#paint3_linear)"/>
<path d="M46.2744 36.4281H48.5306C49.2431 36.4281 49.8369 36.0718 50.1931 35.4781V37.2593C50.1931 37.7343 49.9556 38.5656 49.4806 38.5656C48.5306 38.5656 47.6994 39.1593 47.6994 39.7531V39.8718C47.6994 40.1093 47.5806 40.5843 47.9369 40.9406C48.2931 41.4156 49.1244 41.653 50.5494 41.653H52.5681C53.9931 41.653 54.8244 41.4156 55.1806 40.9406C55.5369 40.5843 55.4181 40.228 55.4181 39.8718V39.7531C55.2994 39.1593 54.4681 38.5656 53.6369 38.5656C53.2806 38.5656 53.0431 37.6156 52.9244 37.2593V35.4781C53.2806 36.0718 53.8744 36.4281 54.5869 36.4281H56.8431C57.9119 36.4281 58.7431 35.5968 58.7431 34.528C58.7431 33.4593 57.9119 32.6281 56.8431 32.6281H54.5869C53.6369 32.6281 52.8056 33.3406 52.6869 34.2906C52.5681 34.2906 52.4494 34.4093 52.4494 34.528V37.3781C52.4494 37.6156 52.6869 39.278 53.7556 39.278C54.4681 39.278 54.9431 39.6343 54.9431 39.9906V40.1093C54.9431 40.3468 54.9431 40.4656 54.9431 40.5843C54.8244 40.7031 54.3494 41.0593 52.8056 41.0593H50.7869C49.2431 41.0593 48.7681 40.8218 48.6494 40.5843C48.5306 40.4656 48.5306 40.2281 48.6494 40.1093V39.9906C48.6494 39.7531 49.2431 39.278 49.8369 39.278C50.9056 39.278 51.0244 37.6156 51.1431 37.3781V34.528C51.1431 34.4093 51.0244 34.2906 50.9056 34.2906C50.7869 33.3406 49.9556 32.6281 49.0056 32.6281H46.7494C45.6806 32.6281 44.8494 33.4593 44.8494 34.528C44.8494 35.5968 45.2056 36.4281 46.2744 36.4281ZM54.4681 33.1031H56.7244C57.4369 33.1031 58.0306 33.6968 58.0306 34.4093C58.0306 35.1218 57.4369 35.7155 56.7244 35.7155H54.4681C53.7556 35.7155 53.1619 35.1218 53.1619 34.4093C53.1619 33.6968 53.7556 33.1031 54.4681 33.1031ZM46.2744 33.1031H48.5306C49.2431 33.1031 49.8369 33.6968 49.8369 34.4093C49.8369 35.1218 49.2431 35.7155 48.5306 35.7155H46.2744C45.5619 35.7155 44.9681 35.1218 44.9681 34.4093C44.9681 33.6968 45.5619 33.1031 46.2744 33.1031Z" fill="url(#paint4_linear)"/>
<path d="M52.8056 32.1527H58.2681C58.3869 32.1527 58.5056 32.0339 58.5056 31.9152C58.5056 31.7964 58.3869 31.6777 58.2681 31.6777H52.8056C52.6869 31.6777 52.5681 31.7964 52.5681 31.9152C52.5681 32.0339 52.6869 32.1527 52.8056 32.1527Z" fill="url(#paint5_linear)"/>
</g>
<defs>
<filter id="filter0_d" x="0" y="0.802734" width="103" height="103" filterUnits="userSpaceOnUse" color-interpolation-filters="sRGB">
<feFlood flood-opacity="0" result="BackgroundImageFix"/>
<feColorMatrix in="SourceAlpha" type="matrix" values="0 0 0 0 0 0 0 0 0 0 0 0 0 0 0 0 0 0 127 0"/>
<feOffset dy="4"/>
<feGaussianBlur stdDeviation="2"/>
<feColorMatrix type="matrix" values="0 0 0 0 0 0 0 0 0 0 0 0 0 0 0 0 0 0 0.25 0"/>
<feBlend mode="normal" in2="BackgroundImageFix" result="effect1_dropShadow"/>
<feBlend mode="normal" in="SourceGraphic" in2="effect1_dropShadow" result="shape"/>
</filter>
<linearGradient id="paint0_linear" x1="8.80866" y1="12.0897" x2="79.9831" y2="72.4801" gradientUnits="userSpaceOnUse">
<stop stop-color="#7F7FD5"/>
<stop offset="1" stop-color="#86A8E7"/>
</linearGradient>
<linearGradient id="paint1_linear" x1="6.23275" y1="13.7537" x2="77.4071" y2="74.1441" gradientUnits="userSpaceOnUse">
<stop stop-color="#7F7FD5"/>
<stop offset="1" stop-color="#86A8E7"/>
</linearGradient>
<linearGradient id="paint2_linear" x1="14.5102" y1="3.9989" x2="85.6838" y2="64.3895" gradientUnits="userSpaceOnUse">
<stop stop-color="#7F7FD5"/>
<stop offset="1" stop-color="#86A8E7"/>
</linearGradient>
<linearGradient id="paint3_linear" x1="10.8497" y1="8.31197" x2="82.0236" y2="68.7024" gradientUnits="userSpaceOnUse">
<stop stop-color="#7F7FD5"/>
<stop offset="1" stop-color="#86A8E7"/>
</linearGradient>
<linearGradient id="paint4_linear" x1="14.3167" y1="4.22614" x2="85.491" y2="64.6167" gradientUnits="userSpaceOnUse">
<stop stop-color="#7F7FD5"/>
<stop offset="1" stop-color="#86A8E7"/>
</linearGradient>
<linearGradient id="paint5_linear" x1="17.9368" y1="-0.0404443" x2="89.1104" y2="60.3501" gradientUnits="userSpaceOnUse">
<stop stop-color="#7F7FD5"/>
<stop offset="1" stop-color="#86A8E7"/>
</linearGradient>
</defs>
</svg>
