<svg width="103" height="104" viewBox="0 0 103 104" fill="none" xmlns="http://www.w3.org/2000/svg">
<g filter="url(#filter0_d)">
<path d="M51.5 2.58398C76.675 2.58398 97.2188 23.1277 97.2188 48.3027C97.2188 73.4777 76.675 94.0215 51.5 94.0215C26.325 94.0215 5.78125 73.4777 5.78125 48.3027C5.78125 23.1277 26.325 2.58398 51.5 2.58398ZM51.5 0.802734C25.2563 0.802734 4 22.059 4 48.3027C4 74.5465 25.2563 95.8027 51.5 95.8027C77.7438 95.8027 99 74.5465 99 48.3027C99 22.059 77.7438 0.802734 51.5 0.802734Z" fill="url(#paint0_linear)"/>
<path d="M88.5503 63.3845C88.4316 63.147 88.0753 63.0282 87.8378 63.0282H81.9003V45.3345H83.6816C83.9191 45.3345 84.0378 45.2157 84.2753 45.097L88.0753 42.1282C88.3128 41.8907 88.4316 41.5345 88.4316 41.1782C88.4316 40.822 87.9566 40.5845 87.6003 40.5845C87.4816 40.5845 74.5378 39.5157 67.5316 29.897C67.2941 28.947 65.5128 23.247 65.2753 19.3282C65.2753 18.8532 64.8003 18.4969 64.4441 18.4969H61.9503C61.4753 18.4969 61.1191 18.8532 61.1191 19.3282C60.8816 23.247 59.1003 28.947 58.8628 29.897C51.8566 39.397 38.9128 40.5845 38.7941 40.5845C38.4378 40.5845 38.0816 40.822 37.9628 41.1782C37.8441 41.5345 37.9628 41.8907 38.3191 42.1282L42.1191 45.097C42.2378 45.2157 42.4753 45.3345 42.7128 45.3345H44.3753V63.0282H38.4378C38.2003 63.0282 37.8441 63.147 37.7253 63.3845C37.6066 63.622 37.4878 63.8594 37.6066 64.2157L41.1691 77.6345C41.2878 77.9907 41.6441 78.347 42.0003 78.347H84.3941C84.7503 78.347 85.1066 78.1095 85.2253 77.6345L88.7878 64.2157C88.7878 63.8594 88.7878 63.622 88.5503 63.3845ZM80.1191 63.0282H75.9628V45.3345H80.1191V63.0282ZM63.9691 63.0282V45.3345H74.1816V63.0282H63.9691ZM51.9753 63.0282V45.3345H62.1878V63.0282H51.9753ZM62.6628 20.2782H63.4941C63.8503 23.6032 64.9191 27.522 65.5128 29.422H60.7628C61.2378 27.4032 62.3066 23.4844 62.6628 20.2782ZM40.9316 42.0095C45.0878 41.297 54.2316 38.8032 59.9316 31.0845H66.2253C72.0441 38.8032 81.1878 41.1782 85.2253 42.0095L83.3253 43.5532H42.8316L40.9316 42.0095ZM46.1566 45.3345H50.3128V63.0282H46.1566V45.3345ZM83.6816 76.447H42.5941L39.5066 64.8094H86.6503L83.6816 76.447Z" fill="url(#paint1_linear)"/>
<path d="M27.9878 57.209C23.119 57.209 19.0815 53.1715 19.0815 48.3027C19.0815 43.434 23.119 39.3965 27.9878 39.3965C32.8565 39.3965 36.894 43.434 36.894 48.3027C36.894 53.1715 32.9753 57.209 27.9878 57.209ZM27.9878 41.1777C24.069 41.1777 20.8628 44.384 20.8628 48.3027C20.8628 52.2215 24.069 55.4277 27.9878 55.4277C31.9065 55.4277 35.1128 52.2215 35.1128 48.3027C35.1128 44.384 31.9065 41.1777 27.9878 41.1777Z" fill="url(#paint2_linear)"/>
</g>
<defs>
<filter id="filter0_d" x="0" y="0.802734" width="103" height="103" filterUnits="userSpaceOnUse" color-interpolation-filters="sRGB">
<feFlood flood-opacity="0" result="BackgroundImageFix"/>
<feColorMatrix in="SourceAlpha" type="matrix" values="0 0 0 0 0 0 0 0 0 0 0 0 0 0 0 0 0 0 127 0"/>
<feOffset dy="4"/>
<feGaussianBlur stdDeviation="2"/>
<feColorMatrix type="matrix" values="0 0 0 0 0 0 0 0 0 0 0 0 0 0 0 0 0 0 0.25 0"/>
<feBlend mode="normal" in2="BackgroundImageFix" result="effect1_dropShadow"/>
<feBlend mode="normal" in="SourceGraphic" in2="effect1_dropShadow" result="shape"/>
</filter>
<linearGradient id="paint0_linear" x1="-2.96243" y1="-4.06506" x2="87.1919" y2="82.6383" gradientUnits="userSpaceOnUse">
<stop stop-color="#F37335"/>
<stop offset="1" stop-color="#FDC830"/>
</linearGradient>
<linearGradient id="paint1_linear" x1="-2.89669" y1="-5.67699" x2="87.2576" y2="81.0264" gradientUnits="userSpaceOnUse">
<stop stop-color="#F37335"/>
<stop offset="1" stop-color="#FDC830"/>
</linearGradient>
<linearGradient id="paint2_linear" x1="-8.01721" y1="13.6603" x2="82.1371" y2="100.364" gradientUnits="userSpaceOnUse">
<stop stop-color="#F37335"/>
<stop offset="1" stop-color="#FDC830"/>
</linearGradient>
</defs>
</svg>
