<svg width="103" height="104" viewBox="0 0 103 104" fill="none" xmlns="http://www.w3.org/2000/svg">
<g filter="url(#filter0_d)">
<path d="M51.5 2.58398C76.675 2.58398 97.2188 23.1277 97.2188 48.3027C97.2188 73.4777 76.675 94.0215 51.5 94.0215C26.325 94.0215 5.78125 73.4777 5.78125 48.3027C5.78125 23.1277 26.325 2.58398 51.5 2.58398ZM51.5 0.802734C25.2563 0.802734 4 22.059 4 48.3027C4 74.5465 25.2563 95.8027 51.5 95.8027C77.7438 95.8027 99 74.5465 99 48.3027C99 22.059 77.7438 0.802734 51.5 0.802734Z" fill="url(#paint0_linear)"/>
<path d="M73.5876 64.9277L63.3751 39.0403L60.0501 9.35275C60.0501 9.11525 59.9313 8.87775 59.6938 8.759C59.4563 8.64025 59.2188 8.5215 58.9813 8.64025L56.0126 9.35275C55.6563 9.4715 55.4188 9.82775 55.3001 10.184L51.8563 62.3152H51.0251L47.5813 10.184C47.5813 9.82775 47.3438 9.4715 46.8688 9.35275L43.9001 8.64025C43.6626 8.5215 43.4251 8.64025 43.1876 8.759C42.9501 8.87775 42.8313 9.11525 42.8313 9.35275L39.5063 39.0403L29.2938 64.9277C29.1751 65.1652 29.1751 65.5215 29.4126 65.759L35.4688 75.0215L34.1626 87.0153C34.1626 87.2528 34.1626 87.4902 34.4001 87.7277C34.5188 87.9652 34.7563 87.9653 35.1126 87.9653H47.5813C48.0563 87.9653 48.4126 87.609 48.4126 87.134L49.7188 75.6152H53.0438L54.3501 87.134C54.3501 87.609 54.8251 87.9653 55.1813 87.9653H67.6501C67.8876 87.9653 68.1251 87.8465 68.3626 87.7277C68.4813 87.4902 68.6001 87.2528 68.6001 87.0153L67.2938 75.0215L73.3501 65.759C73.7063 65.5215 73.7063 65.1652 73.5876 64.9277ZM46.8688 73.9528V64.0965H56.3688V73.9528H46.8688ZM31.3126 65.1652L38.9126 45.809L35.9438 72.2902L31.3126 65.1652ZM46.8688 86.3027H36.1813L44.7313 10.659L46.0376 11.0153L49.3626 62.434H45.9188C45.4438 62.434 44.9688 62.7902 44.9688 63.384V75.0215C44.9688 75.4965 45.3251 75.9715 45.9188 75.9715H48.0563L46.8688 86.3027ZM56.2501 86.3027L55.0626 75.734H57.2001C57.6751 75.734 58.1501 75.3777 58.1501 74.784V63.1465C58.1501 62.6715 57.7938 62.1965 57.2001 62.1965H53.7563L57.0813 10.7777L58.3876 10.4215L66.9376 86.0652H56.2501V86.3027ZM67.1751 72.2902L64.2063 45.809L71.8063 65.1652L67.1751 72.2902Z" fill="url(#paint1_linear)"/>
</g>
<defs>
<filter id="filter0_d" x="0" y="0.802734" width="103" height="103" filterUnits="userSpaceOnUse" color-interpolation-filters="sRGB">
<feFlood flood-opacity="0" result="BackgroundImageFix"/>
<feColorMatrix in="SourceAlpha" type="matrix" values="0 0 0 0 0 0 0 0 0 0 0 0 0 0 0 0 0 0 127 0"/>
<feOffset dy="4"/>
<feGaussianBlur stdDeviation="2"/>
<feColorMatrix type="matrix" values="0 0 0 0 0 0 0 0 0 0 0 0 0 0 0 0 0 0 0.25 0"/>
<feBlend mode="normal" in2="BackgroundImageFix" result="effect1_dropShadow"/>
<feBlend mode="normal" in="SourceGraphic" in2="effect1_dropShadow" result="shape"/>
</filter>
<linearGradient id="paint0_linear" x1="4.07802" y1="8.68892" x2="77.0255" y2="69.5503" gradientUnits="userSpaceOnUse">
<stop stop-color="#86A8E7"/>
<stop offset="1" stop-color="#91EAE4"/>
</linearGradient>
<linearGradient id="paint1_linear" x1="1.81223" y1="10.4407" x2="74.712" y2="71.2625" gradientUnits="userSpaceOnUse">
<stop stop-color="#86A8E7"/>
<stop offset="1" stop-color="#91EAE4"/>
</linearGradient>
</defs>
</svg>
