<svg width="103" height="104" viewBox="0 0 103 104" fill="none" xmlns="http://www.w3.org/2000/svg">
<g filter="url(#filter0_d)">
<path d="M51.5 2.58398C76.675 2.58398 97.2188 23.1277 97.2188 48.3027C97.2188 73.4777 76.675 94.0214 51.5 94.0214C26.325 94.0214 5.78125 73.4777 5.78125 48.3027C5.78125 23.1277 26.325 2.58398 51.5 2.58398ZM51.5 0.802734C25.2563 0.802734 4 22.059 4 48.3027C4 74.5465 25.2563 95.8027 51.5 95.8027C77.7438 95.8027 99 74.5465 99 48.3027C99 22.059 77.7438 0.802734 51.5 0.802734Z" fill="url(#paint0_linear)"/>
<path d="M87.4813 40.3465L86.2938 37.1402C86.175 36.784 85.8188 36.5465 85.4625 36.5465H73.5875L71.4501 29.3027C71.3313 28.9465 70.975 28.709 70.6188 28.709H32.5001C32.1438 28.709 31.7876 28.9465 31.6688 29.3027L29.5313 36.5465H17.6563C17.3001 36.5465 16.9438 36.784 16.8251 37.1402L15.6376 40.3465C15.5188 40.584 15.5188 40.9402 15.7563 41.1777C15.8751 41.4152 16.2313 41.534 16.4688 41.534H20.3876V49.7277H18.0126C17.5376 49.7277 17.0626 50.084 17.0626 50.6777V55.6652C17.0626 56.1402 17.4188 56.6152 18.0126 56.6152H19.6751V67.3027C19.6751 67.7777 20.0313 68.2527 20.6251 68.2527H43.1876H60.2875H82.85C83.325 68.2527 83.8 67.8965 83.8 67.3027V56.6152H85.4625C85.9375 56.6152 86.4125 56.259 86.4125 55.6652V50.6777C86.4125 50.2027 86.0563 49.7277 85.4625 49.7277H83.0875V41.534H87.0063C87.2438 41.534 87.6001 41.4152 87.7188 41.1777C87.6001 40.9402 87.6001 40.584 87.4813 40.3465ZM18.8438 51.509H21.2188H38.5563L37.9626 52.2215C37.7251 52.459 37.7251 52.8152 37.8438 53.1715C37.9626 53.5277 38.3188 53.6465 38.675 53.6465H42.0001V54.7152H41.6438H20.3876H18.7251V51.509H18.8438ZM62.5438 51.8652H40.4563L41.5251 50.4402H43.1876C43.5438 50.4402 43.9 50.2027 44.0188 49.7277L45.0876 45.809H58.0313L59.1 49.7277C59.2188 50.084 59.5751 50.4402 59.9313 50.4402H61.5938L62.5438 51.8652ZM74.4188 56.4965V66.234H67.5313V56.4965H74.4188ZM65.7501 66.234H61.0001V56.4965H65.7501V66.234ZM48.4125 54.0027H54.7063V66.1152C54.7063 66.1152 54.7063 66.1152 54.7063 66.234H48.4125C48.4125 66.234 48.4125 66.234 48.4125 66.1152V54.0027ZM35.35 56.4965V66.234H28.7001V56.4965H35.35ZM37.1313 56.4965H41.7626H42.1188V66.234H37.1313V56.4965ZM56.4875 66.1152V54.0027H59.2188V66.234L56.4875 66.1152C56.4875 66.234 56.4875 66.234 56.4875 66.1152ZM21.3376 56.4965H26.9188V66.234H21.3376V56.4965ZM43.9001 54.0027H46.6313V66.1152C46.6313 66.1152 46.6313 66.1152 46.6313 66.234H43.9001V54.0027ZM81.6625 66.234H76.0813V56.4965H81.6625V66.234ZM84.275 54.7152H82.6125H61.0001V53.6465H64.3251C64.6813 53.6465 64.9188 53.409 65.1563 53.1715C65.2751 52.8152 65.275 52.459 65.0375 52.2215L64.4438 51.509H81.7813H84.1563V54.7152H84.275ZM80.9501 49.7277H64.3251H63.1376L62.6625 49.0152C62.5438 48.7777 62.1876 48.659 61.9501 48.659H60.525L59.4563 44.7402C59.3375 44.384 58.9813 44.0277 58.6251 44.0277H44.3751C44.0188 44.0277 43.6626 44.2652 43.5438 44.7402L42.475 48.659H41.05C40.8125 48.659 40.4563 48.7777 40.3376 49.0152L39.8625 49.7277H38.675H22.0501V41.534H80.8313V49.7277H80.9501ZM81.9 39.7527H21.3376H17.7751L18.2501 38.3277H30.1251C30.4813 38.3277 30.8375 38.0902 30.9563 37.734L33.0938 30.4902H69.9063L72.0438 37.734C72.1626 38.0902 72.5188 38.3277 72.8751 38.3277H84.7501L85.225 39.7527H81.9Z" fill="url(#paint1_linear)"/>
</g>
<defs>
<filter id="filter0_d" x="0" y="0.802734" width="103" height="103" filterUnits="userSpaceOnUse" color-interpolation-filters="sRGB">
<feFlood flood-opacity="0" result="BackgroundImageFix"/>
<feColorMatrix in="SourceAlpha" type="matrix" values="0 0 0 0 0 0 0 0 0 0 0 0 0 0 0 0 0 0 127 0"/>
<feOffset dy="4"/>
<feGaussianBlur stdDeviation="2"/>
<feColorMatrix type="matrix" values="0 0 0 0 0 0 0 0 0 0 0 0 0 0 0 0 0 0 0.25 0"/>
<feBlend mode="normal" in2="BackgroundImageFix" result="effect1_dropShadow"/>
<feBlend mode="normal" in="SourceGraphic" in2="effect1_dropShadow" result="shape"/>
</filter>
<linearGradient id="paint0_linear" x1="99.9124" y1="87.7868" x2="27.0125" y2="28.2591" gradientUnits="userSpaceOnUse">
<stop stop-color="#4CA2CD"/>
<stop offset="1" stop-color="#67B26F"/>
</linearGradient>
<linearGradient id="paint1_linear" x1="98.5502" y1="89.4547" x2="25.6503" y2="29.927" gradientUnits="userSpaceOnUse">
<stop stop-color="#4CA2CD"/>
<stop offset="1" stop-color="#67B26F"/>
</linearGradient>
</defs>
</svg>
